<?xml version="1.0" encoding="UTF-8"?>
<svg id="Capa_1" data-name="Capa 1" xmlns="http://www.w3.org/2000/svg" viewBox="0 0 256.88 257.41">
  <defs>
    <style>
      .cls-1 {
        fill: #fff;
        stroke: #fff;
        stroke-miterlimit: 10;
        stroke-width: .8px;
      }
    </style>
  </defs>
  <path class="cls-1" d="m59.18,112.14c0-30.39.02-60.77-.03-91.16,0-2.6.34-5.15.86-7.64,1.77-8.52,7.7-12.92,17.31-12.93,25.96-.02,51.91,0,77.87,0,20.09,0,40.17-.03,60.26.03,2.97,0,5.97.25,8.9.69,5.82.87,9.36,4.53,10.98,9.98.96,3.24,1.32,6.64,1.32,10.05,0,29.97.04,59.95-.06,89.92,0,2.75.96,4.17,3.38,5.08,11.58,4.36,15.92,13.52,16.43,25.11.1,2.24.17,4.5-.2,6.77-.47,2.83-2.3,4.22-4.81,4.4-2.75.19-3.45-2.19-4.01-4.31-.67-2.52-.26-5.12-.28-7.69-.09-10.02-6.11-16.7-16.17-16.84-18.95-.26-37.91-.26-56.85-.02-9.4.12-16.48,7.9-16.52,17.37-.05,12.26-.02,24.51,0,36.77,0,.94-.55,2.3.71,2.72,1.1.37,1.81-.77,2.52-1.47,5.89-5.76,11.75-11.55,17.64-17.31,1.1-1.08,2.22-2.15,3.42-3.12,4.59-3.74,10.2-2.78,13.54,2.18,3.94,5.87,9.52,10.21,14.45,15.15,1.46,1.47,2.9,1.03,4.28-.37,2.3-2.35,4.58-4.76,7.08-6.89,4.63-3.96,10.16-3.36,13.52,1.8,2.67,4.09,6.77,6.58,9.88,10.13.46.52,1.09,1.09,1.88.67.63-.33.54-1.06.55-1.66.03-2.99.07-5.97.03-8.96-.02-1.84.51-3.45,1.69-4.83,1.06-1.24,2.49-1.35,3.97-1.03,1.85.39,2.65,1.75,3.12,3.45,1.28,4.63.11,9.2-.42,13.76-1.16,10.13-7.66,15.75-16.65,19.03-1.68.61-2.12,1.47-2.16,3.14-.15,6.99.37,13.97-.49,20.97-2.14,17.37-14.64,29.66-32.03,31.45-3.4.35-6.77.45-10.16.45-36.46,0-72.92,0-109.39.03-2.19,0-4.31-.29-6.4-.82-1.85-.46-3.29-1.59-3.27-3.6.02-2.1,1.1-3.71,3.26-4.37,1.59-.49,3.21-.6,4.88-.6,30.08.02,60.15.01,90.23.01.82,0,1.65.05,2.47-.02.75-.07,1.77.38,2.12-.71.25-.79-.4-1.33-.89-1.85-4.59-4.85-7.21-10.68-8.48-17.17-.24-1.2-.4-2.43-.47-3.65-.23-3.49-2.95-6.42-6.42-6.77-1.02-.1-2.06-.05-3.09-.05-47.28,0-94.56,0-141.83,0-5.84,0-8.24,2.95-7.22,8.84,2.18,12.55,12.07,20.98,25.05,21.35,1.64.05,3.27-.11,4.88.47,1.94.7,3.82,1.6,3.78,3.9-.04,2.36-1.42,3.83-3.83,4.61-2.75.89-5.31-.08-7.94-.24-15.63-.96-29.85-15.14-30.91-30.73-.72-10.56,6.01-17.48,17.21-17.54,12.77-.07,25.54-.09,38.32.04,2.59.03,3.27-.75,3.26-3.29-.08-30.9-.05-61.8-.05-92.7Zm9.36,16.55c0,25.23.05,50.46-.07,75.69-.01,2.97.73,3.77,3.74,3.76,30.07-.12,60.14-.07,90.22-.07,7.24,0,12.92,4.66,14.37,11.85.47,2.31.68,4.67,1.19,6.96,3.18,14.32,16.33,22.03,29.5,20.63,8.76-.93,16.79-9.45,19.13-20.28,1.52-7.01.28-14.17.73-21.24.17-2.69-.62-3.49-3.39-3.47-16.99.13-33.98.07-50.98.07-14.18,0-24.78-10.58-24.79-24.74,0-12.56.03-25.13-.03-37.69,0-2.38.05-4.76.68-7.03,2.55-9.11,8.48-15.17,17.4-18.02,2.96-.95,6.3-.92,9.47-.94,16.07-.09,32.13-.1,48.2.02,2.7.02,3.47-.67,3.46-3.42-.12-19.36-.12-38.72,0-58.08.02-2.74-.73-3.44-3.44-3.43-50.67.08-101.34.08-152.01,0-2.72,0-3.45.71-3.43,3.43.11,25.33.06,50.67.06,76Zm79.38-88.73c25.34,0,50.67-.04,76.01.06,2.74.01,3.52-.73,3.43-3.45-.2-6.07-.06-12.15-.06-18.23,0-6.77-1.81-8.59-8.58-8.59-47.58,0-95.16.05-142.74-.08-5.07-.01-7.3,1.87-7.4,7.45-.11,6.49.11,12.98-.09,19.46-.09,2.74.72,3.44,3.44,3.43,25.34-.11,50.67-.06,76.01-.06Zm55.6,153.28c9.06,0,18.11-.06,27.17.03,2.96.03,5.69-.59,8.35-1.8,3.13-1.42,3.25-1.78.9-4.16-3.54-3.59-7.2-7.07-10.69-10.69-1.83-1.89-3.31-1.58-4.93.17-1.68,1.81-3.39,3.59-5.13,5.34-3.61,3.62-7.35,4.05-11.68,1.43-1.86-1.13-3.51-2.51-5.04-4.05-4.21-4.22-8.5-8.38-12.65-12.67-1.75-1.8-3.25-1.88-4.94-.07-1.27,1.35-2.59,2.65-3.89,3.96-5.43,5.48-10.85,10.97-16.29,16.44-1.76,1.78-1.45,2.91.91,3.76,3.59,1.3,7.18,2.37,11.08,2.33,8.95-.09,17.91-.03,26.86-.03Z"/>
  <path class="cls-1" d="m43.82,99.03c0,22.66-.02,45.32.02,67.98,0,2.98-.67,5.68-2.31,8.17-4.14,6.26-8.23,12.55-12.4,18.79-3.18,4.75-5.95,5-9.35.45-5.18-6.93-9.62-14.36-13.9-21.88-.88-1.54-1.1-3.27-1.09-5.07.03-15.25.03-30.49,0-45.74,0-1.59.23-3.07.99-4.46.82-1.5,2.1-2.21,3.81-2.13,1.7.08,2.95.88,3.61,2.46.75,1.83.99,3.75.99,5.73-.03,11.54-.02,23.07,0,34.61,0,3.4.31,3.6,3.54,2.54,4.51-1.49,9.02-1.95,13.59-.23,2.44.92,3.23.07,3.23-2.52-.06-35.23-.06-70.46,0-105.69,0-2.17-.66-2.85-2.81-2.79-4.94.14-9.89.14-14.83,0-2.22-.07-2.76.74-2.75,2.84.08,14.63.06,29.25.02,43.88,0,2.71-.26,5.34-3.4,6.6-2.29.92-3.79.27-4.86-1.75-.83-1.57-1.1-3.27-1.09-5.06.03-22.04-.11-44.09.09-66.13.06-6.78,1.22-13.5,8.22-17.12,4.05-2.1,8.45-2.45,12.92-2.17,1.74.11,3.48.33,5.21.58,5.95.87,9.62,4.46,11.29,10.05.96,3.24,1.32,6.64,1.32,10.05,0,22.66,0,45.32,0,67.98Zm-19.52-59.08c2.68,0,5.35-.06,8.03.02,1.61.05,2.18-.56,2.15-2.16-.07-3.91.03-7.82-.04-11.73-.07-3.88-2.43-6.25-6.39-6.41-2.47-.1-4.94-.04-7.41-.03-4.16.02-6.23,1.86-6.43,6.13-.19,4.01,0,8.03-.08,12.04-.03,1.59.53,2.22,2.14,2.16,2.67-.09,5.35-.02,8.03-.02Zm-.34,128.04c-1.55-.06-3.06.08-4.57.52-3.3.98-3.86,2.23-2.04,5.06,1.62,2.5,3.35,4.94,4.93,7.46,1.36,2.17,2.79,2.33,4.21.23,1.9-2.81,3.68-5.69,5.43-8.6,1.12-1.87.4-3.18-1.58-3.73-2.08-.58-4.19-1.06-6.37-.94Z"/>
  <path class="cls-1" d="m219.68,134.44c5.99.06,11.51,5.76,11.44,11.82-.07,6.12-5.56,11.35-11.9,11.34-5.78-.02-11.22-5.62-11.11-11.43.12-6.26,5.57-11.78,11.56-11.73Zm-.14,8.85c-1.61.02-2.61.83-2.49,2.45.13,1.72,1.15,2.95,2.98,2.85,1.6-.09,2.22-1.32,2.26-2.81.04-1.85-1.01-2.56-2.75-2.48Z"/>
  <path class="cls-1" d="m63.03,251.74c-.11,2.96-1.83,4.81-3.94,4.68-2.34-.14-4.26-2.05-4.14-4.13.13-2.23,2.14-4.22,4.22-4.03,2.34.21,3.74,1.49,3.85,3.47Z"/>
  <path class="cls-1" d="m115.69,113.59c-6.18-.21-13.42.69-20.49-1.12-5.52-1.42-9.3-4.68-10.29-10.56-1.36-8.15-1.83-16.4-.31-24.51,1.42-7.58,6.61-11.39,14.28-12.17,10.37-1.05,20.75-.41,31.12-.46,3.54-.01,7.14.66,10.31,2.65,5.25,3.3,7.18,8.35,7.26,14.15.08,5.64.32,11.28-.4,16.94-1.2,9.44-6.97,14.88-16.62,15.06-4.63.09-9.26.02-14.88.02Zm-.2-39.55c-5.35,0-10.69-.06-16.04.02-3.87.05-6.11,1.7-6.15,4.57-.09,6.58-.12,13.16.01,19.74.07,3.32,2.34,5.74,5.66,5.78,10.9.13,21.8.2,32.69-.04,4.79-.1,6.59-2.39,6.62-7.1.03-5.04.04-10.08,0-15.11-.05-5.48-2.42-7.8-7.98-7.85-4.93-.04-9.87,0-14.81,0Z"/>
  <path class="cls-1" d="m111.15,138.32c-7.21,0-14.41,0-21.62,0-2.19,0-3.99-.68-5.1-2.8-.85-1.62-.38-3.04.42-4.37,1.08-1.8,3.05-2.12,4.88-2.13,14-.07,28-.09,42,.02,2.09.02,4.4.27,5.42,2.75,1.48,3.58-.54,6.48-4.7,6.52-7.1.06-14.21.02-21.31.02Z"/>
  <path class="cls-1" d="m111.04,163.04c-7.21,0-14.41.07-21.62-.03-4.43-.06-6.72-3.58-4.71-6.99,1.08-1.84,3-2.26,4.81-2.27,14.1-.08,28.21-.09,42.31,0,1.89.01,3.99.28,5.11,2.28,1.94,3.45-.14,6.93-4.29,6.98-7.21.08-14.41.02-21.62.02Z"/>
  <path class="cls-1" d="m111.18,187.76c-7.21,0-14.41,0-21.62,0-2.19,0-3.99-.66-5.12-2.77-.86-1.61-.4-3.04.39-4.38,1.07-1.82,3.04-2.15,4.86-2.16,14-.07,28-.09,42,.01,2.09.02,4.41.26,5.45,2.72,1.51,3.56-.52,6.51-4.66,6.55-7.1.07-14.21.02-21.31.02Z"/>
  <path class="cls-1" d="m187.68,74.04c-6.38,0-12.77.08-19.15-.03-4.43-.07-6.72-3.58-4.71-6.99,1.08-1.84,3-2.26,4.81-2.27,12.56-.09,25.12-.12,37.68,0,3.7.04,5.8,2.31,5.54,5.25-.23,2.61-2.29,4.02-5.95,4.03-6.07.01-12.15,0-18.22,0Z"/>
  <path class="cls-1" d="m187.45,98.76c-6.38,0-12.77.1-19.15-.04-4.36-.09-6.55-3.88-4.35-7.17,1.17-1.74,3.07-2.09,4.91-2.1,12.35-.07,24.71-.09,37.06.02,2.08.02,4.4.28,5.41,2.78,1.41,3.48-.51,6.43-4.42,6.48-6.48.09-12.97.02-19.46.02Z"/>
  <path class="cls-1" d="m84.4,24.66c.17-2.54,1.91-4.04,4.54-3.91,2.47.12,4.27,2.03,4.15,4.42-.12,2.39-2.26,4.03-5.01,3.85-2.42-.16-3.85-1.84-3.68-4.35Z"/>
  <path class="cls-1" d="m108.31,29.02c-2.55.02-4.1-1.44-4.15-3.89-.05-2.72,1.67-4.44,4.4-4.39,2.52.05,4.32,1.84,4.3,4.27-.02,2.32-1.92,3.99-4.54,4.01Z"/>
  <path class="cls-1" d="m132.63,25.04c-.04,2.32-1.94,3.98-4.56,3.98-2.67,0-4.23-1.6-4.12-4.22.11-2.57,1.8-4.12,4.41-4.05,2.5.06,4.31,1.88,4.27,4.29Z"/>
</svg>