<?xml version="1.0" encoding="UTF-8"?>
<svg id="Capa_1" data-name="Capa 1" xmlns="http://www.w3.org/2000/svg" viewBox="0 0 351.64 343.07">
  <defs>
    <style>
      .cls-1 {
        fill: none;
        stroke: #fff;
        stroke-linecap: round;
        stroke-linejoin: round;
        stroke-width: 18px;
      }
    </style>
  </defs>
  <path class="cls-1" d="m271.83,192.89c-8.69,2.55-17.24,5.57-25.88,8.32-21.18,6.76-34.92,20.98-41.54,41.9-7.54,23.8-14.64,47.73-21.95,71.6-1.93,6.31-3.94,12.6-7.32,19.09-1.55-4.71-3.2-9.4-4.63-14.14-7-23.29-14.12-46.54-20.84-69.91-7.34-25.56-22.72-42.92-48.91-50.36-27.61-7.84-55.08-16.18-82.62-24.31-2.26-.67-4.52-1.34-8.51-2.52,5.3-1.77,9.05-3.17,12.88-4.28,24.06-6.96,48.22-13.59,72.18-20.88,15.33-4.66,31.24-9.51,40.91-23.39,5.46-7.84,9.77-16.99,12.73-26.06,8.82-26.98,16.65-54.29,24.89-81.47.55-1.83,1.25-3.61,2.51-7.18,1.26,3.55,2.06,5.59,2.7,7.67,8.08,26.55,16.52,53,24.1,79.7,7.46,26.29,24.45,42.26,50.45,49.64,26.79,7.61,53.5,15.49,80.24,23.27,2.39.7,4.71,1.63,8.79,3.06-24.65,7.11-47.44,13.6-70.18,20.28Z"/>
</svg>