<?xml version="1.0" encoding="UTF-8"?>
<svg id="Capa_1" data-name="Capa 1" xmlns="http://www.w3.org/2000/svg" viewBox="0 0 237.05 237.29">
  <defs>
    <style>
      .cls-1, .cls-2 {
        fill: #fff;
      }

      .cls-2 {
        stroke: #fff;
        stroke-miterlimit: 10;
        stroke-width: 4px;
      }
    </style>
  </defs>
  <path class="cls-2" d="m217.52,105c0,21.73-.02,43.47.01,65.2,0,4.96-.09,9.86-2.61,14.35-.62,1.11-.19,1.92.61,2.79,6.01,6.53,11.67,13.35,17.29,20.22,3.66,4.47,2.35,10.6-.7,13.72-4.29,4.39-8.95,8.43-13.94,11.99-4.55,3.25-9.94,2.5-14.03-1.77-3.18-3.32-6.06-6.93-9.06-10.42-7.16-8.33-14.33-16.64-21.44-25.01-1.5-1.77-3.28-2.46-5.54-2.31-11.05.77-22.13.27-33.19.41-2.75.03-3,.26-2.12,2.91,1.37,4.13,3.05,8.16,4.07,12.41.3,1.25,1.19,1.07,2.08,1.07,3.22-.01,6.45-.21,9.65.46,4.16.87,6.71,3.87,7.16,8.56.37,3.89-1.9,7.62-5.55,9.01-1.58.6-3.2,1.06-4.94,1.05-23.59-.02-47.18,0-70.77-.05-2.62,0-5.17-.61-7.24-2.32-2.89-2.38-4.42-5.41-3.41-9.2,1.16-4.35,4.21-6.67,8.59-7.49,2.73-.51,5.46-.49,8.2-.44,1.31.02,2.14-.41,2.56-1.69,1.32-3.98,2.7-7.94,4.01-11.93.5-1.53.4-2.67-1.75-2.57-10.09.46-20.19.13-30.28.19-9.78.06-19.55,0-29.33.02-2.92,0-5.79-.33-8.65-.87-7.86-1.5-13.7-7.96-14.78-15.91-.45-3.31-.44-6.6-.44-9.9,0-44.19-.04-88.39.07-132.58.02-7.86,3.45-13.96,10.75-17.56,2.14-1.06,4.46-1.34,6.74-1.83,1.48-.32,2.31-.85,2.54-2.6.33-2.53,1.03-4.98,2.92-7.02,2.43-2.63,5.37-3.75,8.83-3.77,7.11-.04,14.23.16,21.33-.13,7.15-.29,11.77,3.27,12.86,11.12.23,1.64.84,2.16,2.48,2.15,15.59-.07,31.18-.09,46.78-.09,26.26,0,52.52.02,78.77,0,2.04,0,4.01.31,6,.64,9.37,1.54,15.35,9.44,15.36,18.64.02,23.51,0,47.02,0,70.53.03,0,.07,0,.1,0Zm-142.75,56.66c21.73,0,43.47,0,65.2-.02.96,0,2.33.55,2.8-.73.4-1.11-.69-1.89-1.36-2.66-2.98-3.4-6.07-6.71-8.95-10.19-1.52-1.83-3.32-2.68-5.62-2.8-5.25-.29-10.1-1.84-14.65-4.49-12.82-7.43-19.66-23.54-15.28-37.2,4.41-13.74,13.8-22.01,28.26-24.19,4.64-.7,4.73-.72,3.09-5.12-3.07-8.23-6.26-16.41-9.39-24.62-.55-1.46-1.07-3.14,0-4.37.98-1.13,2.58-.45,3.9-.21,3.73.7,7.26,2.12,10.92,3.1,13.23,3.51,26.39,7.3,39.57,11.01,2.87.81,5.74,1.63,8.55,2.61,3.12,1.09,3.43,3.03.81,5.07-8.79,6.84-17.61,13.64-26.45,20.41-2.89,2.21-3.11,2.85-.81,5.55,4.04,4.75,5.7,10.37,6.34,16.42.39,3.67-.21,7.23-.84,10.81-.25,1.44-.72,2.94.62,4.31,6.18,6.28,11.45,13.35,17.27,19.95,4.48,5.09,8.84,10.29,13.27,15.42.95,1.1,1.92,2.05,3.64,2.01,4.85-.11,9.7-.1,14.54,0,1.93.04,2.62-.83,2.61-2.59-.02-2.26-.01-4.52,0-6.79.01-38.46.05-76.92,0-115.38,0-3.28-.32-6.61-1.94-9.63-2.92-5.44-7.83-7.14-13.58-7.14-42.18-.02-84.35,0-126.53-.06-2.15,0-2.76.6-2.74,2.73.1,10.42.04,20.85.04,31.27,0,23.92.04,47.83-.03,71.75-.02,7.64-3.66,13.92-13.5,13.62-6.7-.2-13.41-.01-20.12-.05-6.2-.03-10.85-3.61-12.25-9.62-.43-1.86-.4-3.85-.4-5.78-.03-30.54-.04-61.08-.03-91.62,0-3.47.12-6.95.16-10.42.01-1.09.01-2.34-1.61-1.93-2.32.59-4.71.88-6.84,2.25-5.3,3.39-6.9,8.45-6.9,14.33,0,40.64,0,81.28-.07,121.92,0,2.39.59,3.19,3.1,3.18,21.73-.1,43.47-.05,65.2-.06Zm-13.04,27.46v.05c16.63,0,33.25,0,49.88,0,16.47.01,32.95.05,49.42.06,1.21,0,2.43-.02,3.62-.21,1.52-.24,1.93-1.02.83-2.31-5.08-5.96-10.17-11.91-15.21-17.9-1.36-1.62-3.01-2.3-5.1-2.21-4.35.18-8.71.38-13.07.42-8.71.07-17.42.03-26.14.03-13.81,0-27.62.06-41.43-.03-18.49-.13-36.98.49-55.47-.36-1.92-.09-2.59.6-2.54,2.49.08,3.15.05,6.28.89,9.37,1.37,5.08,4.31,8.57,9.55,9.85,2.92.71,5.92.73,8.9.74,11.95.04,23.91.02,35.86.02ZM26.69,70.51c.05,0,.11,0,.16,0,0,18.33,0,36.66,0,54.99,0,1.13-.04,2.27.12,3.39.47,3.38,2.81,5.56,6.23,5.58,7.67.06,15.34.08,23.01-.02,4.34-.05,5.68-1.33,6.63-5.53.33-1.44.28-2.89.28-4.34.01-36.34.02-72.68.02-109.02,0-.89.04-1.78-.05-2.66-.32-3.32-2.32-5.61-5.64-5.89-7.57-.63-15.18-.53-22.74-.06-6.76.41-7.44,1.45-7.92,8.32-.04.56-.1,1.13-.1,1.69,0,17.84,0,35.69,0,53.53Zm184.81,119.14c.02-.91-.64-1.45-1.16-2.05-3.45-3.95-6.95-7.87-10.36-11.86-13.6-15.89-27.18-31.79-40.74-47.71-1.18-1.38-2.15-1.69-3.61-.41-5.95,5.21-11.9,10.42-17.95,15.51-1.8,1.51-1.55,2.67-.18,4.2,3.7,4.16,7.34,8.38,10.91,12.66,7.45,8.92,15.08,17.69,22.66,26.5,5.85,6.79,11.74,13.54,17.6,20.32,1.05,1.21,1.98,1.67,3.42.42,6.08-5.31,12.23-10.54,18.34-15.82.53-.46,1.22-.87,1.08-1.76Zm-54.31-77.72c.51-6.34-2.22-11.97-5.74-17.29-1.55-2.35-2.42-2.38-4.41-.64-2.01,1.76-4.04,3.47-6.44,4.69-1.3.66-2.27.66-2.9-.88-1.07-2.61-2.33-5.14-3.3-7.79-2.73-7.49-1.41-6.77-9.19-5.81-8.37,1.03-15.1,5.09-19.84,12.03-5.92,8.67-6.5,18.11-2.57,27.65,4.14,10.07,12.28,15.22,22.79,16.87,2.6.41,3.21-.42,2.67-2.99-1.51-7.24-3-14.49-4.62-21.71-.49-2.2-.58-4.24,1.15-5.83,1.78-1.64,3.99-1.26,5.94-.43,7.86,3.34,16.03,5.92,23.71,9.68,1.55.76,2,.18,2.27-1.21.39-1.99.52-4,.49-6.33Zm-31.05-61.16c-1.73-.01-1.62.89-1.34,1.96.92,3.54,2.97,6.62,4.13,10.05,3.26,9.69,7.5,19.01,10.63,28.75.47,1.46,1.35,1.94,2.73.88,10.87-8.35,21.76-16.67,32.62-25.03.6-.46,1.58-.82,1.43-1.78-.16-1.07-1.17-1.14-2.04-1.38-12.79-3.52-25.58-7.07-38.37-10.62-3.33-.93-6.65-1.91-9.79-2.82Zm-15.83,173.92v.02c10.1,0,20.19,0,30.29,0,1.86,0,3.72.06,5.57-.05,2.49-.15,4.61-1.85,4.82-3.68.26-2.31-1.27-4.29-3.88-5.13-1.03-.33-2.07-.31-3.12-.31-7.75-.01-15.49-.01-23.24-.01-15.9,0-31.8-.02-47.71.04-3.11.01-4.2,1.12-4.43,3.93-.22,2.72.81,3.99,3.7,4.73,1.43.37,2.85.48,4.31.48,11.23,0,22.45,0,33.68,0Zm-1.45-14.14c5.81,0,11.62.01,17.43-.01,1.12,0,2.24-.19,3.37-.23,2.04-.07,2.18-1.28,1.69-2.81-1.23-3.84-2.53-7.65-3.74-11.49-.46-1.48-1.44-2.08-2.88-2.02-9.92.45-19.85.11-29.77.16-1.77,0-2.62.7-3.13,2.31-1.18,3.76-2.45,7.5-3.72,11.23-.79,2.34-.42,2.86,2.11,2.86,6.21,0,12.42,0,18.63,0Zm121.1,3.44c.05-1.01-.34-2.18-.97-3.2-1.44-2.33-2.93-4.62-4.77-6.68-1.12-1.25-2.04-1.37-3.5-.36-3.67,2.53-6.87,5.61-10.22,8.51-2.62,2.27-5.3,4.46-7.93,6.71-2.05,1.76-1.95,2.54-.06,4.39,1.21,1.18,2.3,2.49,3.44,3.74,4.01,4.38,7.06,4.78,11.69,1.09,3.46-2.76,6.87-5.61,9.93-8.84,1.36-1.43,2.42-3.03,2.4-5.36Zm-98.31-83.65c.43,2.02.89,4.47,1.48,6.89.7,2.85,1.15,2.99,3.35,1.1,5.08-4.34,10.13-8.71,15.19-13.08,1.56-1.35,1.41-2.01-.61-2.76-2.19-.81-4.43-1.48-6.56-2.41-1.3-.57-2.21-.35-3.33.4-3.24,2.16-5.77,5.13-8.81,7.51-.63.49-.82,1.17-.7,2.35Zm66.37,86.32c.64-.36,1.42-.65,2.01-1.15,5.7-4.86,11.39-9.74,17.05-14.65,2.31-2.01,2.32-2.69.32-4.93-.48-.54-.96-1.11-1.53-1.55-.85-.65-1.62-.7-2.56.14-5.97,5.29-11.9,10.64-18.14,15.62-.82.65-2.26,1.47-1.42,2.68,1.05,1.51,2,3.36,4.27,3.84Zm14.77-43.76c0-1.13,0-2.26,0-3.39,0-1.75-.83-2.78-2.62-2.66-3.39.21-6.76-.06-10.14-.2-1.02-.04-1.72.34-.83,1.41,3.46,4.15,7.16,8.1,10.5,12.36.89,1.13,2.05,1.14,2.44-.81.45-2.22.91-4.42.65-6.7Zm-84.73-57.08c.45,2.36.87,4.72,1.36,7.08.14.68.57.95,1.22.42,1.92-1.57,3.89-3.09,5.75-4.73.73-.64.31-1.36-.45-1.73-1.88-.91-3.78-1.76-5.68-2.62-1.61-.73-2.28-.15-2.2,1.59Z"/>
  <g>
    <path class="cls-1" d="m109.86,183.97c-3.68-.05-6.44-2.58-6.43-5.87.01-3.77,2.62-6.21,6.65-6.21h.11c3.08.03,5.39,2.85,5.38,6.55,0,2.68-2.91,5.52-5.66,5.52h-.06Zm-.57-11.14c-1.34,0-4.51.48-4.86,4.96-.11,1.42.28,2.67,1.13,3.61.64.71,1.85,1.57,3.95,1.61h.16c2.86,0,4.79-1.64,5.04-4.28v-.14c.09-3.4-1.85-5.61-5.07-5.76-.11,0-.23,0-.34,0Z"/>
    <path class="cls-1" d="m110.08,169.9c-5.15,0-8.64,3.3-8.65,8.2-.01,4.37,3.65,7.8,8.4,7.87.03,0,.06,0,.09,0,3.83,0,7.65-3.73,7.66-7.52.01-4.81-3.18-8.51-7.36-8.56-.04,0-.08,0-.13,0h0Zm-.42,11.12s-.08,0-.12,0c-2.09-.04-3.28-1.2-3.13-3.07.15-1.81.85-3.12,2.87-3.12.08,0,.16,0,.24,0,2.06.1,3.24,1.32,3.18,3.71-.15,1.58-1.23,2.47-3.04,2.47h0Z"/>
  </g>
  <path class="cls-2" d="m45.11,74.34c1.05,0,2.1,0,3.14,0,4.38.05,6.57,1.69,7.05,5.99.37,3.34.37,6.72-.22,10.1-.49,2.81-1.99,4.39-4.72,4.66-3.84.39-7.7.64-11.52-.27-2.27-.54-3.5-2.03-3.94-4.36-.62-3.29-.52-6.61-.28-9.88.31-4.23,2.65-6.15,6.85-6.22,1.21-.02,2.42,0,3.63,0v-.02Zm5.43,10.36c0-.08,0-.16,0-.24q0-5.17-5.08-5.15c-5.62.02-5.45.03-6.08,5.49-.67,5.79-1.45,6.48,5.99,5.7q5.17-.54,5.18-5.8Z"/>
  <path class="cls-2" d="m44.69,17.98c1.37,0,2.74-.04,4.11,0,4.14.14,5.62,1.35,6.39,5.44.58,3.11.5,6.29.12,9.39-.45,3.7-2.5,5.54-6.7,6.08-2.77.36-5.6.39-8.4-.23-3.19-.7-5.19-2.29-5.4-5.79-.22-3.61-.73-7.22.23-10.78.75-2.75,2.66-4.11,5.55-4.06,1.37.03,2.74,0,4.11,0,0-.02,0-.05,0-.07Zm5.86,9.98c0-1.13-.08-2.27.02-3.38.16-1.66-.57-2.12-2.13-1.99-1.76.15-3.54.13-5.32.14-3.49.02-3.61.13-3.66,3.72-.01.89-.01,1.77-.05,2.66q-.23,5.08,5.06,5.01,6.06-.08,6.07-6.15Z"/>
  <path class="cls-2" d="m44.36,123.53c-1.47-.18-3.64.06-5.8-.42-1.93-.43-2.96-1.5-3.38-3.3-.91-3.97-.85-8.01-.5-12.01.24-2.71,2.06-4.34,5.01-4.76,3.76-.53,7.56-.44,11.33-.02,2.04.23,3.4,1.44,3.87,3.46.93,3.97.95,8.02.22,11.97-.7,3.84-2.27,4.9-6.21,5.08-1.29.06-2.58,0-4.55,0Zm6.15-10.38c.08-1.37.23-2.74.21-4.11-.01-1.02-.36-2.05-1.69-1.83-2.42.39-4.84.17-7.25.2-1.81.03-2.41.84-2.34,2.56.06,1.44.01,2.91-.19,4.34-.51,3.74.1,4.54,3.79,4.62.57.01,1.13.02,1.7.02,6.84.03,5.71.51,5.77-5.8Z"/>
  <path class="cls-2" d="m44.77,46.24c1.21,0,2.42-.01,3.63,0,4.48.07,6.59,1.86,6.96,6.31.23,2.81.21,5.65.05,8.47-.2,3.45-2.18,5.63-5.82,6.04-3.19.36-6.43.41-9.64-.22-2.97-.59-4.83-2.33-5.19-5.29-.42-3.44-.56-6.93.05-10.36.62-3.47,2.54-4.89,6.09-4.94,1.29-.02,2.58,0,3.87,0Zm.45,16.36c1.14,0,1.63,0,2.11,0,3.06,0,3.26-.25,3.23-3.32-.02-2.01-.13-4.02.25-6.03.31-1.67-.27-2.64-2.17-2.55-2.33.11-4.67.15-7.01.14-1.68,0-2.28.76-2.2,2.39.09,1.93.08,3.85-.32,5.77-.44,2.09.5,3.22,2.68,3.31,1.37.06,2.73.22,3.44.28Z"/>
</svg>