<?xml version="1.0" encoding="UTF-8"?>
<svg id="Capa_1" data-name="Capa 1" xmlns="http://www.w3.org/2000/svg" viewBox="0 0 256.6 256.27">
  <defs>
    <style>
      .cls-1 {
        fill: #fff;
        stroke: #fff;
        stroke-miterlimit: 10;
      }
    </style>
  </defs>
  <path class="cls-1" d="m74.28,202.94c0,12.86.03,25.72-.02,38.58-.01,3.41-.81,6.61-2.83,9.49-2.77,3.97-6.81,5.16-11.26,5.19-15.02.08-30.04.11-45.05-.03-3.41-.03-6.89-.61-9.82-2.71-4.65-3.33-5.17-8.41-5.2-13.43-.11-22.35-.07-44.71-.03-67.06,0-4.64-.44-9.3.76-13.9,1.73-6.62,6.18-10.1,13.38-10.18,5.61-.06,11.22-.05,16.83.01,1.43.01,2.21-.24,2.26-1.92.05-1.62.46-3.23.77-4.84,2.11-10.7,7.53-15.98,18.35-17.63,7.28-1.11,14.64-.29,21.96-.47,4.46-.11,4.39,0,3.01-4.33-1.47-4.61-.99-4.32-6.1-4.32-11.05,0-22.09-.02-33.14,0-9.18.02-17.04-3.25-24.21-8.91C.51,95.89-2.55,77.38,3.18,64.26c3.92-8.97,10.58-15.35,19.39-19.61,3.49-1.69,7.18-2.33,10.89-3.02,1.77-.33,2.69-1.26,3.38-3.03C44.73,18.39,59.19,5.34,80.46,1.1c15.27-3.05,29.83.33,42.82,9.2,5.78,3.95,10.86,8.73,14.66,14.71.75,1.18,1.72,1.38,2.87.84,1.09-.51,2.14-1.11,3.16-1.74,12.85-7.97,26.65-9.75,40.92-5.19,12.66,4.04,22.09,12.45,28.62,24.03.87,1.55,1.35,3.35,1.87,5.07.59,1.95,1.71,2.35,3.7,2.12,13.29-1.55,23.85,3.4,31.58,14.11,3.36,4.65,4.92,10.09,5.46,15.93,1.85,20.24-16.1,35.5-33.33,35.24-12.77-.19-25.55-.04-38.32-.04q-4.15,0-5.49,3.91c-1.62,4.73-1.61,4.63,3.34,4.75,7.83.19,15.67-.54,23.48.88,9.94,1.81,16.28,8.58,17.07,18.83q.4,5.13,5.61,5.13c5.78,0,11.57.04,17.35-.02,2.04-.02,3.95.49,5.77,1.22,3.85,1.56,4.86,4.97,4.89,8.64.1,13.03.13,26.07-.01,39.1-.06,5.06-4.36,8.58-10.06,8.7-2.93.06-5.87.06-8.8,0-1.34-.03-1.94.46-1.79,1.81.02.17,0,.34,0,.52-.13,6.21-.13,6.29,6.03,6.28,1.86,0,2.3.6,2.3,2.37-.02,5.62.05,5.62-5.49,5.62-13.72,0-27.45-.04-41.17.04-2.05.01-2.87-.39-2.81-2.65.14-5.31.02-5.46,5.26-5.27,2.51.09,3.23-.62,3.14-3.14-.19-5.55-.05-5.57-5.6-5.56-3.36,0-6.69.12-9.95-1.09-2.81-1.05-4.34-2.91-4.74-5.85-.36-2.66-.51-5.31-.5-7.99.04-10.44,0-20.89.02-31.33,0-8.14,3.28-11.39,11.48-11.39,6.39,0,12.78-.09,19.16.05,2.12.05,2.69-.69,2.52-2.66-.31-3.49-1.08-6.74-3.24-9.64-3.03-4.06-7.52-4.43-11.85-4.58-8.1-.28-16.22-.05-24.34-.1-1.64,0-2.82.64-3.78,1.86-3.87,4.92-8.26,9.38-13.44,12.81-6.82,4.51-14,8.48-22.45,9.24-3.78.34-4.13.77-4.13,4.57,0,3.71.07,7.42-.03,11.13-.05,1.66.46,2.26,2.18,2.22,4.31-.1,8.63.02,12.94-.05,2.87-.05,5.65.48,8.46.88,4.16.59,6.58,3.14,8.12,6.75,1.06,2.48,1.46,5.12,1.46,7.81,0,13.21.06,26.41-.05,39.61-.02,2.23.47,3.37,2.81,3.99,4.37,1.18,6.03,5.06,5.06,9.51-1.36,6.25-4.83,10.53-10.8,12.61-2.83.99-5.84,1.37-8.89,1.37-15.97-.03-31.93-.05-47.9.02-3.57.02-7.04-.5-10.48-1.29-6.7-1.54-11.74-7.96-11.77-14.85-.01-3.47,1.13-6.36,4.75-7.39,2.68-.76,3.13-2.35,3.11-4.89-.13-12.34-.03-24.68-.08-37.03,0-2.09.21-4.14.61-6.16,1.4-7.05,6.11-10.85,13.57-10.93,5.61-.06,11.22-.07,16.83.02,1.71.03,2.23-.53,2.19-2.21-.1-4.23-.09-8.46,0-12.69.03-1.58-.49-2.41-2.08-2.64-2.38-.34-4.77-.71-7.12-1.2-6.11-1.26-11.34-4.51-16.47-7.81-5.19-3.34-9.5-7.69-13.1-12.72-1.28-1.79-3-2.61-5.32-2.59-8.46.1-16.92-.04-25.37.06-9.46.11-13.74,6.86-13.78,15.3,0,1.53.83,1.61,1.97,1.6,4.49-.02,8.98.06,13.46-.03,3.22-.06,6.35.5,9.47,1.15,3.02.63,4.89,2.77,6.28,5.36,1.46,2.72,1.94,5.71,1.95,8.74.04,12.95.02,25.89.02,38.84Zm128.75-95.5v-.02c5.95,0,11.91,0,17.86,0,6.36,0,12.35-1.39,17.51-5.21,7.76-5.75,10.72-13.69,9.7-23.12-1.22-11.25-10.37-19.79-21.46-21.2-4.61-.59-9.1.13-13.36,1.92-1.9.8-2.42.37-2.74-1.62-.54-3.32-1.61-6.54-3.12-9.55-4.59-9.13-11.18-16.07-20.73-20.37-9.19-4.13-18.48-4.67-27.96-2.16-8.82,2.34-16.22,7.12-21.5,14.73-1.35,1.95-2.6,1.95-4.49.93-4.55-2.44-4.69-3.27-1.18-7.12,2.14-2.34,3.45-2.39.15-5.75-2.46-2.51-4.17-5.87-6.87-8.03-8.47-6.78-17.97-11.4-28.98-12.55-11.03-1.15-21.33,1.05-30.68,6.85-11.99,7.43-19.31,18.44-23,31.94-.41,1.49-1.01,2.18-2.66,2.06-4.74-.34-9.25.75-13.58,2.58-12.07,5.1-18.28,15.96-17.74,27.53.73,15.79,13.7,27.9,29.58,28.13,11.56.17,23.13-.02,34.69.09,2.2.02,2.64-.86,2.54-2.77-.2-3.97.11-7.98.94-11.82,2.57-11.98,8.47-22.2,17.83-30.13,13.39-11.34,28.84-15.25,46.09-11.77,5.99,1.21,11.37,3.76,16.53,7.01,10.74,6.77,18.33,15.93,22.61,27.95,2.24,6.3,2.54,12.81,2.91,19.32.11,1.95.82,2.22,2.47,2.2,6.21-.07,12.43-.03,18.64-.03Zm-74.66,124.28c8.88,0,17.76-.05,26.64.04,1.87.02,2.53-.42,2.51-2.42-.09-13.8-.03-27.59-.06-41.39,0-4.43-1.88-6.28-6.32-6.29-15.18-.02-30.35-.02-45.53,0-4.64,0-6.46,1.77-6.47,6.41-.04,13.8.02,27.59-.05,41.39,0,1.86.61,2.3,2.37,2.29,8.97-.08,17.93-.04,26.9-.04Zm90.8-49.71c9.05,0,18.1-.04,27.15.04,1.8.02,2.36-.51,2.34-2.33-.1-6.89-.08-13.79-.01-20.69.02-1.63-.42-2.26-2.16-2.26-18.01.05-36.03.05-54.04,0-1.7,0-2.21.55-2.19,2.23.08,6.81.1,13.62-.01,20.43-.03,1.99.47,2.66,2.56,2.63,8.79-.12,17.58-.05,26.38-.05Zm-181.98,33.14c8.88,0,17.76-.04,26.64.03,1.8.02,2.6-.3,2.56-2.37-.13-6.81-.12-13.62,0-20.43.03-1.94-.57-2.48-2.49-2.48-17.84.07-35.69.06-53.53,0-1.72,0-2.43.38-2.41,2.27.1,6.89.1,13.79,0,20.69-.03,1.83.55,2.33,2.34,2.32,8.96-.08,17.93-.04,26.89-.04Zm-.01-33.14c8.88,0,17.76-.06,26.64.05,2.09.03,2.61-.64,2.57-2.63-.13-5.43-.02-10.86-.05-16.29-.03-4.45-1.87-6.32-6.28-6.32-15.17-.02-30.34-.02-45.51,0-4.68,0-6.48,1.74-6.53,6.36-.06,5.52.05,11.03-.06,16.55-.04,1.81.52,2.35,2.33,2.33,8.96-.08,17.93-.04,26.89-.04Zm.14,41.08c-8.97,0-17.94.05-26.91-.04-1.95-.02-2.51.57-2.46,2.49.12,5,.03,10,.04,15,.01,5.97,1.77,7.75,7.66,7.75,14.66,0,29.32,0,43.98,0,4.9,0,6.64-1.69,6.69-6.66.05-5.35-.09-10.7.06-16.04.06-2.14-.74-2.57-2.68-2.55-8.8.08-17.59.04-26.39.04Zm91.33,16.57c-1.38,0-2.76,0-4.14,0-10.18,0-20.36-.02-30.54.02-3.2.01-3.66.98-2.06,3.79,2.11,3.72,5.74,4.72,9.48,4.74,18.2.14,36.4.11,54.61.03,3.63-.02,6.69-1.59,8.65-4.82,1.77-2.91,1.29-3.75-2.09-3.76-11.3-.01-22.6,0-33.9,0Zm-.6-140.51c4.74,0,9.49-.04,14.23.02,1.85.02,2.83-.11,2.39-2.55-.7-3.8-.93-7.69-1.2-11.55-.15-2.12-.9-2.94-3.17-2.9-7.76.14-15.52.19-23.28-.02-2.8-.07-3.6,1.15-3.86,3.55-.38,3.59-.45,7.22-1.43,10.74-.57,2.03.25,2.78,2.36,2.74,4.65-.11,9.31-.03,13.97-.03Zm.49,7.94c-4.56,0-9.13.08-13.69-.04-2.17-.06-3.09.4-2.84,2.88.41,4.1,1.25,8.17,1.14,12.31-.03,1.34.64,1.78,1.92,1.77,8.7-.03,17.39-.03,26.09,0,1.28,0,1.78-.36,1.91-1.71.41-4.19.75-8.41,1.57-12.54.49-2.48-.38-2.75-2.41-2.72-4.56.09-9.13.03-13.69.03Zm90.65,91.49c7.93,0,15.86,0,23.78,0,5.69,0,5.58,0,5.71-5.65.06-2.34-.58-3.05-2.99-3.03-16.37.11-32.75.05-49.12.05-6.41,0-6.34,0-6.33,6.33,0,1.79.49,2.36,2.32,2.34,8.88-.09,17.75-.04,26.63-.04Zm-125.63-91.48c-2.76,0-5.52,0-8.28,0-1.7,0-2.23.81-2.04,2.47.51,4.4,1.6,8.61,3.43,12.64.47,1.04.94,1.8,2.19,1.8,5-.02,10.01-.02,15.01-.02,1.01,0,1.67-.3,1.49-1.52-.66-4.43-1.29-8.86-1.47-13.34-.06-1.64-1-2.13-2.57-2.07-2.58.1-5.18.03-7.76.04Zm69.89,0c-2.24,0-4.47,0-6.71,0-3.5.01-3.9.39-4.24,3.94-.35,3.67-.38,7.38-1.36,10.98-.49,1.79.61,2.02,2.01,2.01,4.64-.02,9.29-.06,13.93.02,1.54.03,2.23-.63,2.88-1.96,1.96-4,2.32-8.42,3.49-12.62.44-1.57-.26-2.42-2.01-2.38-2.66.06-5.33.02-8,.01Zm-.24-7.94c2.84,0,5.68-.04,8.52.01,1.65.03,2.35-.38,1.91-2.26-1.03-4.35-2.27-8.63-3.94-12.78-.54-1.35-1.57-1.91-3.05-1.9-4.22.04-8.44.07-12.65,0-2.07-.04-2.78.84-2.54,2.82.51,4.09,1.14,8.18,1.06,12.32-.03,1.52.86,1.83,2.17,1.81,2.84-.05,5.68-.02,8.52-.02Zm-69.93,0c2.75,0,5.51-.11,8.26.04,1.73.1,2.29-.71,2.43-2.18.38-4.11.74-8.21,1.13-12.32.17-1.74-.48-2.52-2.32-2.49-4.3.08-8.6.07-12.9,0-1.64-.03-2.42.77-3.13,2.14-2.13,4.1-2.49,8.72-3.95,13.02-.48,1.4.48,1.79,1.72,1.79,2.92-.02,5.85,0,8.77,0Zm34.89-24.86c3.62,0,7.23.01,10.85-.01.91,0,2.36.05,1.6-1.41-2.09-4.02-3.36-8.5-6.6-11.9-4.38-4.59-8.38-4.3-12.13.83-2.35,3.22-3.91,6.86-5.77,10.34-.83,1.55-.24,2.2,1.45,2.18,3.53-.04,7.06-.01,10.59-.02Zm.14,57.66h0c-3.35,0-6.71,0-10.06,0-1.33,0-2.31.4-1.77,1.98,1.64,4.75,3.76,9.24,7.52,12.73,2.79,2.59,6.95,2.43,9.37-.49,2.87-3.46,5.05-7.34,6.48-11.63.67-2,0-2.66-2-2.61-3.18.08-6.36.02-9.55.02Zm91.14,83.2c.77,0,1.55,0,2.32,0,6.33,0,6.28,0,6.17-6.43-.03-1.64-.46-2.3-2.18-2.23-2.75.12-5.5.03-8.25.03-6.92,0-6.89,0-6.55,6.85.07,1.31.42,1.85,1.78,1.8,2.23-.08,4.47-.02,6.7-.02Zm-63.78-140.93s0,.03,0,.04c2.07,0,4.13.02,6.2-.02.39,0,.93-.12,1.13-.39.37-.5-.05-1-.42-1.34-1.29-1.14-2.64-2.2-3.92-3.36-3.73-3.39-8.1-5.78-12.53-8.08-.57-.29-1.3-.74-1.92-.13-.67.65-.1,1.34.25,1.85,1.26,1.79,1.63,3.98,2.66,5.84.98,1.78.29,4.64,2.17,5.41,1.84.76,4.23.16,6.38.16Zm.83,57.73c-1.81,0-3.62,0-5.43,0-1.01,0-1.92.15-2.25,1.29-1.05,3.64-2.49,7.11-4.29,10.45-.3.57-.84,1.29-.15,1.88.67.57,1.3-.02,1.85-.39,2.14-1.46,4.42-2.67,6.78-3.73,3.98-1.79,6.44-5.39,9.69-8.05.31-.26.73-.68.39-1.08-.22-.26-.75-.35-1.15-.35-1.81-.04-3.62-.02-5.43-.02Zm-55.78-57.66c1.81,0,3.61-.01,5.42,0,.82,0,1.53-.09,1.82-1.04,1.17-3.87,2.74-7.58,4.47-11.23.57-1.2-.04-1.67-1.22-1.15-1.02.45-1.96,1.07-2.96,1.55-5.02,2.39-9.32,5.79-13.37,9.54-.52.48-1.22.94-1.04,1.66.26,1.03,1.27.62,1.98.65,1.63.06,3.27.02,4.91.02Zm-.24,57.7c-1.72,0-3.45-.02-5.17.01-.47.01-1.11-.17-1.35.46-.21.57.19.98.58,1.32,5.01,4.35,10.18,8.48,16.23,11.34.44.21.94.6,1.42.14.44-.43.26-1,.05-1.45-.88-1.86-1.93-3.65-2.7-5.55-3.18-7.83-1.74-6.1-9.05-6.27Z"/>
  <path class="cls-1" d="m122.02,31.67c-1.11,1.76-2.56,3.24-4.25,4.37-1.33.89-2.13-.46-2.98-1.3-8.1-8.09-17.71-11.43-29.15-9.63-9.54,1.5-16.66,6.47-21.98,14.33-.48.71-1.1,1.33-1.56,2.05-.92,1.44-1.85,1.49-3.12.36-.75-.67-1.7-1.2-2.65-1.56-1.8-.69-2.19-1.37-.85-3.1,3.01-3.87,6.05-7.6,9.68-11.01,12.82-12.01,38.52-13.64,53.64,1.73,1.12,1.14,2.59,2.01,3.22,3.76Z"/>
  <path class="cls-1" d="m128.19,223.09c-6.13,0-12.25-.04-18.38.03-1.56.02-2.09-.44-2.08-2.05.06-9.58.06-19.15,0-28.73,0-1.56.44-2.08,2.04-2.08,12.34.06,24.68.05,37.02,0,1.56,0,2.09.43,2.08,2.04-.07,9.58-.08,19.15,0,28.73.02,1.85-.77,2.09-2.31,2.08-6.13-.06-12.25-.03-18.38-.03Zm.12-7.94c3.53,0,7.06-.07,10.59.03,1.62.05,2.06-.55,2.03-2.09-.08-4.3-.07-8.61,0-12.91.02-1.43-.45-1.97-1.92-1.96-7.15.05-14.29.05-21.44,0-1.51-.01-1.9.59-1.88,1.99.06,4.3.08,8.61,0,12.91-.03,1.57.45,2.12,2.05,2.07,3.53-.1,7.06-.03,10.59-.03Z"/>
  <path class="cls-1" d="m33.2,202.61c.07-4.72-.59-3.99,4.19-4,4.34-.01,3.7-.6,3.74,3.9.03,4.02,0,4.05-4.43,4.01-4.06-.03-3.43.51-3.5-3.91Z"/>
  <path class="cls-1" d="m57.71,202.51c0,4.02,0,4.05-4.44,4.01-4.12-.04-3.48.62-3.48-4.43,0-4.21-.56-3.46,4.69-3.49,3.76-.02,3.17-.45,3.23,3.91Z"/>
  <path class="cls-1" d="m24.56,169.35c0,4.03,0,4.06-4.43,4.02-4.14-.04-3.49.62-3.49-4.41,0-4.23-.55-3.47,4.68-3.5,3.76-.02,3.18-.45,3.24,3.9Z"/>
  <path class="cls-1" d="m37.24,165.44c4.49.07,3.85-.59,3.89,3.77.04,4.17,0,4.17-4.27,4.17-3.66,0-3.68,0-3.65-4.54.02-4.03-.34-3.33,4.03-3.4Z"/>
  <path class="cls-1" d="m24.56,235.85c0,3.81,0,3.85-4.38,3.8-4.19-.04-3.53.64-3.54-4.37,0-4.26-.58-3.52,4.64-3.54,3.86-.02,3.21-.52,3.28,4.11Z"/>
  <path class="cls-1" d="m41.14,235.68c0,3.99,0,4.02-4.47,3.97-4.1-.04-3.45.61-3.45-4.45,0-4.19-.54-3.43,4.73-3.46,3.73-.02,3.13-.44,3.19,3.94Z"/>
</svg>