<?xml version="1.0" encoding="UTF-8"?>
<svg id="Capa_1" data-name="Capa 1" xmlns="http://www.w3.org/2000/svg" viewBox="0 0 359.03 223.62">
  <defs>
    <style>
      .cls-1 {
        fill: #fff;
      }
    </style>
  </defs>
  <path class="cls-1" d="m179.5,0c55.98,0,111.96,0,167.94,0,1.26,0,2.53.02,3.79.1,4.42.26,7.65,3.59,7.8,8.02.01.33,0,.66,0,1,0,68.36,0,136.72.01,205.08,0,3.88-1.43,6.85-5,8.56-1.84.88-3.9.8-5.88.8-13.43,0-26.86-.05-40.29-.05-95.27,0-190.54,0-285.81-.02-4.78,0-9.58.34-14.35-.09C2.87,222.97,0,219.76,0,214.95,0,146.13,0,77.3,0,8.48,0,3.59,3.1.22,7.98.13,15.88-.03,23.8,0,31.71,0c49.26,0,98.53,0,147.79,0Zm-.09,206.9h0c11.3,0,22.6,0,33.91,0,42.48,0,84.97.01,127.45.07,1.63,0,1.65-.76,1.65-1.96,0-32.95.01-65.9.02-98.85,0-26.31.01-52.62,0-78.92,0-.5.32-1.2-.33-1.42-.52-.17-.93.41-1.34.72-8.78,6.68-17.58,13.33-26.31,20.06-15.63,12.05-31.19,24.17-46.82,36.21-27.31,21.05-54.64,42.07-81.96,63.11-4.38,3.37-7.9,3.46-12.29.08-14.22-10.93-28.43-21.88-42.63-32.85-17.66-13.65-35.29-27.35-52.97-40.97-19.73-15.2-39.52-30.35-59.29-45.51-.5-.38-.96-1.21-1.63-.9-.7.33-.3,1.21-.3,1.83-.01,37.07,0,74.14,0,111.21,0,21.39-.04,42.78-.05,64.18,0,3.83,0,3.83,3.74,3.87.8,0,1.6.04,2.39.04,52.26,0,104.51,0,156.77,0ZM32.98,16.91c2.38,1.83,4.36,3.36,6.34,4.88,30.43,23.41,60.9,46.78,91.21,70.35,15.89,12.36,32.09,24.31,47.81,36.87,1.24.99,1.88.3,2.72-.35,14.17-10.99,28.31-22.02,42.53-32.95,20.8-16,41.7-31.86,62.46-47.9,12.66-9.79,25.23-19.71,37.97-29.4.53-.41,1.68-.56,1.43-1.39-.24-.8-1.27-.43-1.96-.43-8.51,0-17.02,0-25.52,0-85.88,0-171.77-.02-257.65.01-2.28,0-4.62-.28-7.33.31Z"/>
</svg>