<?xml version="1.0" encoding="UTF-8"?>
<svg id="Capa_1" data-name="Capa 1" xmlns="http://www.w3.org/2000/svg" viewBox="0 0 273.56 274.47">
  <defs>
    <style>
      .cls-1 {
        fill: #fff;
      }
    </style>
  </defs>
  <path class="cls-1" d="m0,274.47c5.4-19.77,10.25-39.08,16.08-58.09,2.51-8.19,1.81-14.75-1.93-22.59C-25.24,111.19,28.46,12.96,119.08,1.18c72-9.36,137.77,37.77,151.9,108.83,14.84,74.63-36.09,148.09-111.18,160.36-29.66,4.85-57.9.42-84.69-13.13-2.14-1.08-4.01-1.29-6.34-.67-21.62,5.75-43.28,11.39-64.93,17.05-1.06.28-2.14.48-3.85.85Zm32.96-32.98c.94.63,1.5.25,2.08.1,12.44-3.27,24.88-6.49,37.3-9.83,2.19-.59,3.92-.37,5.9.82,24.91,14.94,51.67,19.8,80.28,14.66,60.11-10.8,101.7-71.44,90.09-131.42C236.48,53.14,178.16,13.4,115.48,25.09c-49.95,9.32-88.68,53.8-91.14,104.46-1.2,24.65,4.71,47.34,18.01,68.09,1.33,2.07,1.62,3.85.9,6.21-1.84,6.03-3.39,12.15-5.04,18.23-1.77,6.51-3.53,13.02-5.26,19.4Z"/>
  <path class="cls-1" d="m173.45,205.71c-5.75.01-10.87-1.32-15.97-2.92-31.97-10-56.27-29.83-74.38-57.72-6.61-10.19-13.34-20.28-15.8-32.48-3.11-15.43.81-28.65,12.39-39.45,4.77-4.45,13.25-5.62,19.11-2.75,2.72,1.34,4.34,3.51,5.36,6.32,3.18,8.71,6.39,17.41,9.72,26.07,1.11,2.9.53,5.42-1.22,7.66-2.36,3.02-5,5.81-7.45,8.76-3.63,4.38-3.74,6.13-1,10.97,9.98,17.66,24.15,30.87,42.24,39.96,6.12,3.08,8.08,2.81,12.58-2.16,3.16-3.48,6.29-7.01,9.2-10.69,1.99-2.52,4.26-3.36,7.13-2.06,10.16,4.59,19.83,10.1,29.56,15.51,2.69,1.5,2.4,4.09,2.14,6.58-1.55,14.42-7.64,22.01-25.49,27.49-2.72.84-5.6,1.01-8.1.91Z"/>
</svg>