<?xml version="1.0" encoding="UTF-8"?>
<svg id="Capa_1" data-name="Capa 1" xmlns="http://www.w3.org/2000/svg" viewBox="0 0 269.06 269.12">
  <defs>
    <style>
      .cls-1 {
        fill: #fff;
        stroke: #fff;
        stroke-miterlimit: 10;
        stroke-width: .8px;
      }
    </style>
  </defs>
  <path class="cls-1" d="m216.75,268.72H53.67c-.51-.78-1.29-1.12-2.16-1.36-3.3-.9-5.09-3.13-5.67-6.45-.67-3.82-.03-7.68-.38-11.5-.34-3.76,1.33-6.04,4.47-7.8,7.3-4.1,14.47-8.45,21.78-12.53,3.47-1.93,5.5-4.37,4.76-8.56-.16-.92.07-1.91.18-2.86.33-2.86.07-3.13-2.83-3.12-16.34.07-32.68.16-49.01.18-2.96,0-5.99.07-8.88-.47-9.76-1.82-15.52-9.38-15.52-20.07-.01-57.49-.03-114.98.02-172.48C.44,9.83,6.86.37,21.72.4c71.47.15,142.94.06,214.42.08,5.4,0,10.8-.11,16.21.42,6.95.69,12.99,5.57,14.6,12.38.32,1.37.63,2.73,1.71,3.74v181.96c-1.03,1.14-1.3,2.65-1.84,4.01-3.03,7.74-8.88,11.3-16.97,11.54-16.4.47-32.8.14-49.21.2-2.01,0-4.02-.13-6.02-.04-1.09.05-2.27.17-2.3,1.85-.04,2.61-.22,5.23-.42,7.84-.12,1.51.49,2.42,1.82,3.11,8.97,4.64,17.68,9.75,26.36,14.91,2.16,1.29,3.28,3.02,3.26,5.53-.03,3.66.04,7.33-.03,10.99-.06,3.65-1.36,6.63-4.87,8.29-.71.34-1.43.68-1.71,1.51Zm-83.38-97.87s0-.06,0-.08c39.85,0,79.7,0,119.55,0,1.31,0,2.61-.18,3.92-.17,2.44.01,3.19-1.1,3.19-3.55-.07-48.94-.04-97.88-.05-146.82,0-1.13.01-2.29-.22-3.39-1.12-5.22-4.89-7.89-11.05-7.89-75.86,0-151.71,0-227.57,0-.79,0-1.58-.02-2.36.03-5.76.36-9.33,3.87-9.79,9.63-.08.96-.09,1.92-.09,2.88-.28,48.76.43,97.52-.41,146.27-.04,2.45.9,3.14,3.25,3.14,40.55-.05,81.09-.04,121.64-.04Zm1.21,8.23c-38.7,0-77.41,0-116.11,0-2.45,0-4.89-.11-7.34-.1-1.35,0-2.36.46-2.34,2.13.07,5.33-.06,10.66.17,15.98.21,4.98,3.57,8.22,8.6,8.97,2.27.34,4.52.35,6.79.35,53.99,0,107.98-.03,161.96-.02,20.44,0,40.88.08,61.33.09,7.59,0,12.12-3.73,12.29-10.24.13-4.98,0-9.96.06-14.94.02-1.81-.7-2.5-2.5-2.45-4.45.13-8.91.21-13.36.21-36.52.02-73.04,0-109.56,0Zm-.34,81.29s0,.07,0,.11c25.33,0,50.66,0,75.99,0,1.05,0,2.09-.06,3.14-.13.72-.05,1.52-.27,1.71-1,.64-2.51.57-5.1-.43-7.45-.75-1.75-2.73-1.2-4.24-1.2-50.31-.01-100.62,0-150.93,0q-6.03,0-6.01,6.17c.01,3.03.49,3.5,3.48,3.5,25.77,0,51.53,0,77.3,0Zm68.97-17.94c-.98-1.67-2.15-2.35-3.38-3-2.47-1.3-5.06-2.42-7.35-4-3.41-2.35-7.09-3.06-11.13-3.05-29.01.04-58.03.18-87.04-.13-7.91-.09-15.26.54-21.8,5.37-.97.71-2.19,1.07-3.28,1.63-1.3.67-2.57,1.4-4.09,3.02,46.32-.06,92.02-.27,138.07.16Zm-69.05-18.08s0-.01,0-.02c14.51,0,29.01,0,43.52,0,6.22,0,6.22.02,6.27-6.26.03-3.53.03-3.5-3.64-3.5-30.5.01-61,.02-91.49.02-3.7,0-3.7-.04-4.02,3.79-.07.87-.19,1.74-.27,2.61-.27,3.19-.12,3.36,2.96,3.36,15.56,0,31.11,0,46.67,0Z"/>
  <path class="cls-1" d="m133.53,161.02c-32.94,0-65.89,0-98.83,0-2.62,0-5.23-.02-7.84-.44-2.49-.4-3.25-2.07-3.44-4.24-.2-2.26,1.49-2.85,3.14-3.14,2.14-.38,4.33-.63,6.5-.64,37.66-.04,75.33-.04,112.99-.01,2.27,0,4.53.27,6.8.41,1.74.11,2.85-.17,2.44-2.47-.43-2.43.3-4.84,1.09-7.16,3.07-8.99,6.13-17.98,9.25-26.96.33-.96.31-1.76-.42-2.38-1.77-1.5-2.89-3.48-4.13-5.38-1.16-1.78-2.34-2.08-3.99-.49-4.59,4.42-9.28,8.74-13.89,13.15-4.53,4.33-9.44,7.83-15.62,9.68-6.09,1.82-11.97,4.32-17.9,6.64-8.53,3.34-17.9-4.79-17-12.86.56-5.03,3.48-8.59,7.96-10.58,4.13-1.83,8.48-3.2,12.78-4.6,4.21-1.36,7.81-3.4,11.13-6.51,6.22-5.86,12.21-12,18.92-17.33,1.34-1.06,1.93-2.52,2.17-4.06.65-4.12,2.95-7.23,5.88-9.94,4.55-4.21,9.2-8.32,13.78-12.48,1.67-1.52,4.78-2.46,4.12-5.15-.75-3.02-3.35-5.12-6.32-6.19-3.11-1.12-6.36-1.81-9.55-2.73-3.18-.92-6.44-1.66-9.5-2.88-5.67-2.27-8.23-6.65-7.85-12.79.25-4.16,4.51-8.9,9.27-10.35,1.9-.58,3.84-.55,5.71-.18,10.08,2,20.15,4.09,30.21,6.18,4.87,1.01,7.94,4.51,10.92,8.09,1.28,1.54,2.63,3.03,3.95,4.55.91,1.05,1.73,1.04,2.46-.21.49-.83,1-1.64,1.51-2.45,4-6.3,9.96-9.21,17.15-8.3,6.94.88,11.7,5.33,13.93,11.98,2.27,6.77.45,12.74-4.59,17.71-2.43,2.39-5.57,3.57-8.76,4.52-1.88.56-2.3,1.45-1.56,3.27,2.84,7.04,5.25,14.24,7.28,21.56.53,1.9,1.65,2.55,3.57,2.75,4.5.48,9.03.78,13.45,1.91,5.31,1.35,9.67,6.84,9.34,11.82-.43,6.44-5.32,11.48-11.31,12.13-7.96.86-15.89.37-23.81-.15-5.99-.39-10.6-3.29-12.92-9.13-2.89-7.29-5.83-14.56-8.61-21.9-.69-1.82-1.46-1.06-2.27-.4-2.36,1.94-4.6,4.03-7.01,5.9-1.63,1.26-1.51,2.22-.36,3.84,3.32,4.68,6.6,9.41,9.3,14.51,2,3.79,2.33,7.61.79,11.56-1.1,2.84-2.3,5.66-3.52,8.45-3.09,7.02-6.28,14-9.31,21.05-1.8,4.18-1.08,5.04,3.33,4.51,1.04-.12,2.09-.17,3.13-.17,15.03-.01,30.06-.03,45.09.01,2.97,0,5.94.17,8.9.38,2.67.18,3.99,1.53,4.04,3.86.05,2.4-1.09,3.46-4.01,3.75-3.22.31-6.44.49-9.68.49-32.77-.02-65.54-.02-98.31,0Zm92.06-54.67s0-.03,0-.05c3.93,0,7.86.01,11.79-.02.51,0,1.03-.2,1.53-.35,2.88-.82,3.71-3.6,1.75-5.88-.94-1.09-2.04-1.88-3.53-2.06-2.59-.3-5.18-.71-7.78-.95-6.53-.59-11.47-3.07-13.35-10.02-1.39-5.12-3.08-10.18-4.95-15.15-1.71-4.52-2.51-9.46-6.06-13.21-7.08-7.49-14-15.11-21.04-22.64-1.78-1.9-4.08-2.96-6.63-3.47-7-1.41-13.99-2.82-20.99-4.22-2.9-.58-5.77-1.4-8.78-1.09-2.3.23-3.16,1.58-3.02,3.75.2,2.97,2.42,3.79,4.76,4.45,5.28,1.48,10.57,2.94,15.85,4.42,1.78.5,3.35,1.38,4.84,2.52,3.79,2.91,6.29,7.01,9.63,10.32.92.91.54,1.92.17,2.92-.91,2.42-2.98,3.85-4.77,5.47-6.27,5.69-12.7,11.21-18.95,16.93-3.21,2.94-3.4,5.47-.9,9.02,4.98,7.05,10.03,14.05,15.07,21.05,2.6,3.61,3.59,7.34,2.02,11.79-3.11,8.79-5.95,17.68-8.84,26.55-.89,2.73-.12,4.38,2.36,5.57,2.36,1.12,4.25.55,5.77-1.86.79-1.25,1.51-2.56,2.1-3.92,4.24-9.75,8.42-19.54,12.67-29.29,1.23-2.83.87-5.43-.76-7.94-3.33-5.12-6.7-10.22-10-15.36-2.34-3.65-2.23-5.01.74-8.06,4.57-4.69,10.05-8.39,14.49-13.22.4-.43.99-.71,1.54-.97,2.56-1.19,4.62-.38,5.69,2.25.98,2.42,1.92,4.86,2.88,7.29,2.9,7.28,5.84,14.56,8.71,21.85,1.04,2.65,2.97,3.65,5.72,3.58,3.41-.09,6.81-.02,10.22-.02Zm-120.37,24.16c.54-.14,1.06-.23,1.55-.4,5.66-2.01,11.38-3.9,16.96-6.11,4.43-1.75,8.89-3.43,12.41-7.01,4.46-4.54,9.08-8.92,14.1-12.88,4.64-3.66,4.6-4.68.72-9.2-2.41-2.8-3.13-2.93-5.94-.4-5.06,4.55-10.14,9.09-14.99,13.85-3.81,3.74-7.89,6.72-13.18,8.09-4.37,1.14-8.61,2.82-12.87,4.34-2.08.74-3.76,4-3.23,6.29.54,2.3,2.44,2.98,4.47,3.42Zm109.81-77.6c3.98.72,8.9-4.35,8.82-9.14-.08-4.78-4.4-8.99-9.43-8.95-4.21.04-8.36,4.54-8.44,9.15-.08,4.82,4.02,8.87,9.04,8.93Z"/>
  <path class="cls-1" d="m84.82,49.78c7.94,0,15.88-.01,23.81.01,1.3,0,2.6.22,3.91.3,2.57.15,3.41,1.72,3.4,4.04,0,2.51-1.36,3.57-3.76,3.7-16.3.87-32.61.21-48.92.38-1.82.02-3.64-.28-5.47-.4-2.22-.15-3.32-1.37-3.37-3.53-.05-2.1.5-3.84,2.95-4.19,1.03-.14,2.07-.32,3.1-.32,8.11-.03,16.22-.01,24.34-.01,0,0,0,.02,0,.03Z"/>
  <path class="cls-1" d="m74.02,23.01c7.6,0,15.21,0,22.81,0,1.24,0,2.46.03,3.58.59,1.76.88,2.56,2.36,2.28,4.3-.27,1.87-1.42,2.95-3.33,3.12-1.91.17-3.82.43-5.74.44-12.67.04-25.34.04-38.02,0-2.26,0-4.53-.26-6.79-.48-2.16-.21-3.25-1.51-3.33-3.66-.08-2.08.61-3.62,2.87-3.98,1.03-.16,2.07-.3,3.11-.3,7.52-.03,15.03-.01,22.55-.01Z"/>
  <path class="cls-1" d="m51.48,111.72c-6.46,0-12.93.04-19.39-.02-2.92-.03-4.35-1.46-4.47-4.02-.11-2.22.98-3.51,3.05-3.88,1.8-.32,3.64-.53,5.46-.54,10.74-.05,21.48-.03,32.23,0,1.21,0,2.44.11,3.64.32,2.93.53,3.81,1.66,3.61,4.42-.17,2.35-1.48,3.65-4.21,3.69-6.64.09-13.27.03-19.91.03Z"/>
  <path class="cls-1" d="m80.29,84.98c-5.67,0-11.34.04-17.01-.01-3.22-.03-4.29-1.06-4.35-3.88-.06-2.9.91-3.98,4.07-4.2,12.03-.84,24.05-.27,36.08.08,2.12.06,3.27,1.29,3.49,3.2.22,1.92-.38,3.59-2.46,4.38-1.01.38-2.03.46-3.08.46-5.58,0-11.16,0-16.75,0v-.02Z"/>
  <path class="cls-1" d="m64.95,138.45c-3.5,0-6.99.04-10.49-.01-3.11-.04-4.33-1.2-4.33-3.96,0-2.74,1.23-3.96,4.33-3.98,7.08-.05,14.16-.04,21.23,0,2.87.02,4.48,1.52,4.51,3.98.02,2.43-1.63,3.93-4.5,3.97-3.58.04-7.17.01-10.75.01v-.02Z"/>
  <path class="cls-1" d="m43.22,84.9c-1.82.18-3.12.03-4.36-.44-1.9-.71-2.73-2.21-2.48-4.11.25-1.87,1.27-3.28,3.39-3.37,1.57-.07,3.14-.08,4.71-.04,3.19.09,4.24.99,4.35,3.61.12,2.86-.82,3.89-4.01,4.34-.68.09-1.39.01-1.6.01Z"/>
  <path class="cls-1" d="m33.55,138.47c-4.71.01-6.27-1.21-5.94-4.64.21-2.13,1.72-3.27,4.46-3.34,5.71-.14,7.41.54,7.77,3.11.42,3.01-1.12,4.78-4.2,4.86-.69.02-1.39,0-2.08,0Z"/>
  <path class="cls-1" d="m38,57.79c-4.49-.02-5.42-.49-6-3.03-.47-2.07.77-4.12,2.87-4.51,1.97-.36,3.95-.56,5.98-.18,2.7.51,3.74,1.61,3.66,4.14-.08,2.44-1.28,3.48-4.16,3.58-.78.03-1.57,0-2.35,0Z"/>
  <path class="cls-1" d="m134.48,188.7c2.96,0,5.92-.06,8.88.02,2.78.07,3.87,1.16,3.98,3.75.11,2.41-1.15,4.07-3.69,4.13-6.18.14-12.37.13-18.55.01-2.37-.04-3.64-1.8-3.57-4.27.07-2.49,1.42-3.61,3.8-3.62,3.05-.02,6.1,0,9.14,0,0,0,0,0,0-.01Z"/>
</svg>