<?xml version="1.0" encoding="UTF-8"?>
<svg id="Capa_1" data-name="Capa 1" xmlns="http://www.w3.org/2000/svg" viewBox="0 0 738.86 226.88">
  <defs>
    <style>
      .cls-1 {
        font-family: Arial-BoldMT, Arial;
        font-size: 129.83px;
        font-weight: 700;
      }

      .cls-1, .cls-2 {
        fill: #201747;
      }

      .cls-3 {
        fill: #3cb4e5;
      }
    </style>
  </defs>
  <text class="cls-1" transform="translate(659.56 178.01)"><tspan x="0" y="0">?</tspan></text>
  <g>
    <g>
      <g>
        <path class="cls-2" d="m215.23,178.79c.05,0,.1,0,.15,0h-.3c.05,0,.1,0,.15,0Z"/>
        <path class="cls-2" d="m.23,137.56L0,2.25C0,1.11.93.18,2.07.18L84.14,0C95.67,0,100.09,1.22,104.99,4.89c7.6,6.11,8.59,13.92,8.83,30.78v48.44c-.25,10.26-.74,23.21-9.08,31.27-2.45,2.2-4.66,3.66-7.85,4.89-4.66,1.47-11.77,1.47-13,1.47h-36.43v56.64h-.86C20.99,178.36.23,163.05.23,137.56Zm66-59.07c0-7.87,0-27.5,0-35.35,0-3.3-2.68-5.97-6-5.96-5.55,0-12.87.02-12.87.02v47.25s7.32,0,12.88,0c3.31,0,5.99-2.67,5.99-5.97Z"/>
        <path class="cls-2" d="m122.63,137.63V2.44c0-1.34,1.09-2.43,2.44-2.43h42.89c1.21,0,2.2.98,2.2,2.19v176.16c-23.58,0-47.53-17.25-47.53-40.72Z"/>
        <path class="cls-2" d="m374.42,76.85c0-.13-.02-.25-.02-.37v.75c0-.13.02-.25.02-.37Z"/>
        <path class="cls-2" d="m579.37,37.33c1.18,0,2.13.96,2.13,2.14v11.74c-.25,11.24-.49,25.16,4.91,35.66,1.23,2.69,2.7,5.21,4.17,7.41,2.21-2.69,3.19-4.48,4.66-7.66,5.89-12.7,4.91-33.95,4.91-35.66v-11.49c0-1.18.96-2.14,2.15-2.14l38.55.06c1.21,0,2.18,1.01,2.16,2.21-.47,21.33-.06,41.51-10.11,61.93-6.87,13.92-13.74,20.52-18.65,24.67v13.55c0,20.29-20.98,38.41-44.23,38.61-.12,0-15.68,0-20.5,0-.78,0-1.4-.63-1.4-1.41v-34.57c0-.77.63-1.4,1.4-1.41l10.64-.06c3.77-.02,6.82-3.08,6.82-6.86v-7.62c-2.7-2.2-6.63-5.13-11.53-11.48-12.51-16.86-14.31-40.79-15.29-45.68-1.68-9.91-1.2-21.96-1.49-29.73-.05-1.22.92-2.22,2.14-2.22,7.48,0,31.23,0,38.57,0Z"/>
      </g>
      <path class="cls-2" d="m432.48,94.01h-42.49c-1.39,0-2.51,1.12-2.51,2.5v41.17c0,23.47,23.19,40.65,46.76,40.65v-82.56c0-.97-.79-1.75-1.76-1.75Z"/>
      <path class="cls-2" d="m537.06,140.92c-2.95.06-18.94.09-20.52,0-3.19-.16-4.89-1.83-5.58-4.04-.73-2.2-.73-6.11-.73-6.11v-56.03h17.55c.82,0,1.5-.67,1.5-1.5v-34.45c0-.82-.67-1.49-1.49-1.49h-17.56V1.49c0-.82-.67-1.49-1.49-1.49h-44.27c-.82,0-1.5.67-1.5,1.5v35.83h-17.58c-.82,0-1.5.67-1.5,1.5v34.45c0,.82.67,1.49,1.49,1.49h17.59v47.64c0,.13.04.3.05.44v14.72c0,23.44,23.38,40.74,46.9,40.8.03,0,27.23-.04,27.23-.04.83,0,1.5-.67,1.5-1.49v-34.43c0-.86-.72-1.5-1.59-1.48Z"/>
      <path class="cls-2" d="m377.88,38.88c0-.97-.79-1.75-1.77-1.75h-78.08c-23.6.37-42.63,20.52-42.63,43.86l-.03,38c0,2.21.02,5.4.02,6.06,0,1.67-.34,3.26-.82,4.77-2.06,6.39-6.18,11.05-13.36,11.05-8.87,0-14.07-7.09-14.07-15.83,0-.83.03-5.35.03-6.07V40.14c0-1.66-1.36-3-3.03-3h-41.48c-1.68,0-3.05,1.34-3.05,3,0,0,0,84.23,0,97.54,0,20.54,16.86,40.55,37.68,40.63h42.25c23.69,0,42.89-17.38,42.89-40.73,0,0,.04-31.33.06-42.99.02-8.79,5.89-16.36,14.81-16.29.53,0,.67.03,1.2.08,8.14.76,12.3,7.89,12.35,15.94.08,11.35.24,43.25.24,43.25,0,23.74,22.73,40.68,46.82,40.75l-.03-139.44Z"/>
    </g>
    <path class="cls-3" d="m434.29,84c-.71.43-1.47.17-2.13-.14-1.96-.93-3.87-1.98-5.83-2.94-6.37-3.11-12.9-5.47-20.18-3.86-4.73,1.04-9.05,3.14-13.32,5.35-1.06.55-2.1,1.14-3.19,1.63-.55.25-1.19.29-1.7-.19-.57-.54-.23-1.09-.02-1.65,1.05-2.82,2.59-5.39,3.97-8.05,4.86-9.37,4.29-18.58-.52-27.75-1.18-2.26-2.48-4.47-3.36-6.89-.23-.63-.82-1.35-.16-1.94.64-.57,1.45-.27,2.17.06,2.47,1.13,5.01,2.15,7.4,3.43,9.93,5.3,19.68,4.69,29.36-.69,1.71-.95,3.49-1.77,5.19-2.73.73-.41,1.39-.71,2.09-.11.79.67.52,1.45.13,2.23-1.54,3.06-3.12,6.09-4.52,9.22-3.54,7.93-3.46,15.76.27,23.57,1.41,2.94,2.78,5.9,4.14,8.87.36.79.72,1.62.18,2.57Z"/>
  </g>
</svg>