<?xml version="1.0" encoding="UTF-8"?>
<svg id="Capa_1" data-name="Capa 1" xmlns="http://www.w3.org/2000/svg" viewBox="0 0 655.05 182.14">
  <defs>
    <style>
      .cls-1 {
        fill: #fff;
      }

      .cls-2 {
        fill: #3cb4e5;
      }
    </style>
  </defs>
  <g>
    <g>
      <path class="cls-1" d="m219.27,182.14c.05,0,.1,0,.15,0h-.31c.05,0,.1,0,.15,0Z"/>
      <path class="cls-1" d="m.24,140.14L0,2.29C0,1.13.94.19,2.11.19L85.72,0C97.46,0,101.97,1.24,106.96,4.98c7.75,6.22,8.75,14.18,9,31.35v49.35c-.25,10.45-.75,23.64-9.25,31.85-2.5,2.24-4.74,3.73-8,4.98-4.74,1.49-11.99,1.49-13.24,1.49h-37.11v57.7h-.88C21.39,181.7.24,166.11.24,140.14Zm67.24-60.17c0-8.01,0-28.01,0-36.01,0-3.36-2.73-6.08-6.11-6.07-5.65,0-13.11.02-13.11.02v48.14s7.45,0,13.12,0c3.38,0,6.1-2.72,6.1-6.08Z"/>
      <path class="cls-1" d="m124.93,140.21V2.49c0-1.37,1.11-2.48,2.49-2.48h43.69c1.24,0,2.24,1,2.24,2.23v179.46c-24.02,0-48.42-17.58-48.42-41.49Z"/>
      <path class="cls-1" d="m381.45,78.29c0-.13-.02-.25-.02-.38v.76c0-.13.02-.25.02-.38Z"/>
      <path class="cls-1" d="m590.23,38.03c1.2,0,2.17.97,2.17,2.18v11.96c-.25,11.45-.5,25.63,5,36.33,1.25,2.74,2.75,5.31,4.25,7.55,2.25-2.74,3.25-4.57,4.75-7.8,6-12.94,5-34.59,5-36.33v-11.71c0-1.2.98-2.18,2.19-2.18l39.28.06c1.23,0,2.22,1.02,2.2,2.25-.48,21.73-.06,42.29-10.29,63.09-7,14.18-14,20.9-19,25.13v13.8c0,20.67-21.37,39.13-45.05,39.34-.12,0-15.97,0-20.88,0-.79,0-1.43-.64-1.43-1.43v-35.22c0-.79.64-1.43,1.43-1.43l10.84-.06c3.84-.02,6.95-3.14,6.95-6.98v-7.76c-2.75-2.24-6.75-5.23-11.75-11.7-12.75-17.17-14.58-41.56-15.58-46.54-1.72-10.1-1.22-22.37-1.52-30.29-.05-1.24.94-2.26,2.18-2.26,7.62,0,31.81,0,39.3,0Z"/>
    </g>
    <path class="cls-1" d="m440.59,95.78h-43.29c-1.41,0-2.56,1.14-2.56,2.54v41.94c0,23.91,23.62,41.41,47.64,41.41v-84.11c0-.99-.8-1.78-1.79-1.78Z"/>
    <path class="cls-1" d="m547.14,143.56c-3.01.06-19.3.09-20.91,0-3.25-.16-4.99-1.86-5.68-4.11-.75-2.24-.75-6.22-.75-6.22v-57.08h17.88c.84,0,1.52-.69,1.52-1.52v-35.1c0-.84-.68-1.52-1.52-1.52h-17.89V1.52c0-.84-.68-1.52-1.52-1.52h-45.1c-.84,0-1.52.69-1.52,1.52v36.5h-17.91c-.84,0-1.52.69-1.52,1.52v35.1c0,.84.68,1.52,1.52,1.52h17.92v48.54c0,.13.05.31.05.44v14.99c0,23.88,23.82,41.51,47.78,41.57.04,0,27.74-.04,27.74-.04.84,0,1.52-.68,1.52-1.52v-35.07c0-.88-.74-1.53-1.62-1.51Z"/>
    <path class="cls-1" d="m384.96,39.61c0-.98-.81-1.78-1.8-1.78h-79.54c-24.05.38-43.43,20.91-43.43,44.69l-.03,38.71c0,2.25.02,5.5.02,6.17,0,1.71-.34,3.32-.84,4.86-2.1,6.51-6.3,11.26-13.61,11.26-9.04,0-14.34-7.22-14.34-16.13,0-.85.03-5.46.03-6.19V40.89c0-1.69-1.38-3.06-3.09-3.06h-42.26c-1.71,0-3.1,1.37-3.1,3.06,0,0,0,85.81,0,99.36,0,20.92,17.17,41.31,38.39,41.39h43.04c24.13,0,43.7-17.71,43.7-41.49,0,0,.04-31.91.06-43.8.02-8.95,6-16.66,15.09-16.6.54,0,.68.03,1.22.08,8.29.77,12.53,8.04,12.58,16.24.08,11.56.24,44.07.24,44.07,0,24.19,23.15,41.44,47.7,41.51l-.04-142.06Z"/>
  </g>
  <path class="cls-2" d="m442.43,85.58c-.72.44-1.5.18-2.17-.14-2-.95-3.95-2.02-5.94-2.99-6.49-3.17-13.15-5.57-20.55-3.93-4.82,1.06-9.22,3.2-13.57,5.45-1.08.56-2.14,1.16-3.25,1.66-.56.25-1.21.3-1.73-.19-.58-.55-.23-1.11-.02-1.68,1.07-2.87,2.64-5.5,4.04-8.2,4.95-9.55,4.37-18.93-.53-28.27-1.21-2.3-2.53-4.56-3.42-7.01-.23-.64-.83-1.37-.16-1.98.65-.58,1.48-.27,2.21.06,2.52,1.15,5.1,2.19,7.54,3.49,10.11,5.4,20.05,4.78,29.91-.7,1.74-.97,3.55-1.8,5.29-2.78.74-.41,1.41-.73,2.13-.11.8.69.53,1.48.13,2.27-1.57,3.11-3.18,6.2-4.6,9.39-3.61,8.07-3.53,16.05.28,24.01,1.43,3,2.84,6.01,4.22,9.04.37.8.73,1.65.18,2.62Z"/>
</svg>