<?xml version="1.0" encoding="UTF-8"?>
<svg id="Capa_1" data-name="Capa 1" xmlns="http://www.w3.org/2000/svg" viewBox="0 0 253.08 269.11">
  <defs>
    <style>
      .cls-1 {
        stroke-width: 4.56px;
      }

      .cls-1, .cls-2, .cls-3 {
        fill: #fff;
        stroke: #fff;
        stroke-miterlimit: 10;
      }

      .cls-2 {
        stroke-width: 2.28px;
      }

      .cls-3 {
        stroke-width: 3.42px;
      }
    </style>
  </defs>
  <path class="cls-3" d="m205.07,134.84c0,34.65,0,69.31,0,103.96,0,18.19-10.51,28.6-28.81,28.6-32.76,0-65.52,0-98.27,0-16.46,0-27.51-11.04-27.51-27.48,0-39.26-.07-78.51.09-117.76.02-4-1.1-4.94-4.96-4.85-11.36.27-22.74.1-34.11.09-.95,0-1.9-.04-2.84,0-1.99.08-3.72-.46-3.68-2.73.04-2.27,1.9-2.67,3.81-2.68.95,0,1.9,0,2.84,0,11.78,0,23.56-.18,35.33.1,4.01.09,3.54-2.09,3.54-4.58,0-2.51.44-4.69-3.55-4.57-9.87.3-19.76.1-29.64.1-.95,0-1.9,0-2.84-.01-2,0-3.65-.69-3.52-2.94.11-2,1.74-2.47,3.55-2.47,10.69.02,21.39-.18,32.08.1,3.85.1,4-1.63,3.99-4.58,0-2.86-.31-4.39-3.87-4.28-8.65.28-17.32.08-25.99.1-1.97,0-4.18.03-4.28-2.53-.11-2.88,2.28-2.88,4.36-2.89,8.8-.02,17.6-.19,26.39.06,4.15.12,3.16-2.49,3.32-4.76.17-2.41.05-4.04-3.27-3.91-6.89.27-13.8.06-20.71.1-2.03.01-4.06-.09-4.07-2.71,0-2.55,1.95-2.86,4.02-2.86,6.9.02,13.82-.21,20.71.1,3.76.17,3.26-1.99,3.34-4.31.09-2.53.08-4.38-3.48-4.13-4.85.34-9.74.05-14.61.1-2.16.02-4.45-.14-4.53-2.81-.08-2.74,2.19-2.92,4.37-2.9,4.87.05,9.75-.14,14.62.07,2.77.12,3.76-.59,3.68-3.54-.21-7.71-.08-15.43-.07-23.15.02-15.62,10.58-26.89,26.27-27.01,33.97-.25,67.95-.25,101.93,0,15.75.12,26.38,11.47,26.39,27.36.04,35.19.01,70.39.01,105.58Zm-148.37-.1c0,29.5.07,59.01-.09,88.51-.02,3.67,1.05,4.43,4.54,4.42,44.53-.12,89.05-.13,133.58,0,3.74.01,4.74-1,4.73-4.71-.11-59.01-.1-118.02,0-177.02,0-3.25-.67-4.32-4.17-4.31-44.8.13-89.6.12-134.39,0-3.31,0-4.3.73-4.28,4.18.15,29.64.08,59.28.08,88.92Zm71.21,98.81c-.95,0-1.89,0-2.84,0-21.52,0-43.04-.02-64.56.04-1.37,0-3.27-.95-3.81,1.69-2.83,13.68,6.86,25.87,20.77,25.88,33.57.03,67.13,0,100.7,0,2.02,0,4.03-.03,6.03-.6,10.04-2.85,15.24-10.86,15.27-23.03,0-3.24-1-4.07-4.15-4.05-22.47.13-44.93.07-67.4.07Zm-.17-197.92c13.27,0,26.53,0,39.8,0,9.48,0,18.95.01,28.43-.01,1.39,0,2.81.43,3.09-2,1.73-14.97-7.29-25.82-22-25.85-32.89-.08-65.78-.03-98.68-.02-3.97,0-7.84.66-11.32,2.69-6.88,4.03-10.34,10.04-10.37,18.05-.02,7.14-.07,7.14,6.89,7.14,21.39,0,42.77,0,64.16,0Z"/>
  <path class="cls-1" d="m20.95,191.05c10.41.01,18.81,8.37,18.83,18.76.02,10.16-8.37,18.35-18.79,18.33-10.53-.01-18.74-8.27-18.71-18.81.03-10.35,8.14-18.29,18.67-18.28Zm-.09,5.94c-6.88.05-12.78,5.99-12.61,12.69.17,6.86,6.11,12.53,12.94,12.37,6.57-.16,12.46-6.06,12.47-12.49,0-6.66-6.06-12.62-12.8-12.57Z"/>
  <path class="cls-1" d="m236.52,52.41c-8.07.01-14.29-6-14.34-13.87-.05-7.85,6.17-14,14.2-14.01,7.98-.02,14.35,6.11,14.43,13.87.08,7.69-6.35,14-14.28,14.01Zm.11-5.5c4.58-.11,8.59-4.22,8.43-8.66-.16-4.51-4.25-8.32-8.87-8.24-4.73.08-8.48,3.96-8.32,8.62.16,4.65,4.12,8.39,8.75,8.28Z"/>
  <path class="cls-1" d="m239.15,156.31c-.22,2.17-1.62,3.59-4.16,3.54-2.51-.05-4.13-1.48-4.08-4.01.05-2.67,1.74-4.31,4.4-4.16,2.41.13,3.91,1.63,3.84,4.63Z"/>
  <path class="cls-1" d="m224.55,76.95c-.07,2.25-1.26,3.74-3.88,3.88-2.61.14-4.21-1.25-4.38-3.68-.18-2.65,1.44-4.41,4.11-4.44,2.4-.03,4.03,1.32,4.15,4.25Z"/>
  <path class="cls-1" d="m23.28,16.41c3.08.02,4.49,1.49,4.56,3.97.07,2.53-1.5,4.12-3.96,4.17-2.63.05-4.38-1.51-4.33-4.24.05-2.52,1.6-3.86,3.73-3.89Z"/>
  <path class="cls-1" d="m34.84,145.82c-2.38-.05-3.89-1.52-3.88-3.98,0-2.68,1.75-4.28,4.42-4.16,2.46.12,4,1.72,3.88,4.25-.12,2.48-1.56,3.92-4.41,3.88Z"/>
  <path class="cls-1" d="m33.98,254.59c-.55,2.41-1.7,4.08-4.3,4.1-2.59.02-4.16-1.53-4.19-3.93-.04-2.61,1.57-4.28,4.33-4.23,2.59.05,3.67,1.83,4.16,4.06Z"/>
  <path class="cls-1" d="m226.45,222c2.49.43,4.18,1.73,4.12,4.23-.07,2.68-1.77,4.18-4.49,4.01-2.56-.16-3.88-1.79-3.78-4.28.11-2.56,1.81-3.7,4.15-3.96Z"/>
  <path class="cls-2" d="m62.39,134.79c0-27.2,0-54.4,0-81.61,0-5.46.31-5.77,5.75-5.77,40.06,0,80.12,0,120.18,0,4.81,0,5.38.52,5.38,5.3.01,54.81-.01,109.62.04,164.43,0,3.53-1.03,5.1-4.87,5.09-40.6-.1-81.2-.1-121.8.02-3.9.01-4.75-1.47-4.74-5.05.12-27.47.06-54.94.06-82.42Zm5.68-.06c0,25.84.06,51.68-.07,77.52-.02,3.26.66,4.35,4.16,4.33,37.2-.13,74.4-.13,111.61-.01,3.32.01,4.33-.79,4.32-4.23-.11-51.68-.11-103.35,0-155.03,0-3.31-.78-4.31-4.22-4.3-37.2.13-74.4.13-111.61,0-3.33-.01-4.29.77-4.27,4.2.15,25.84.08,51.68.08,77.52Z"/>
  <path class="cls-1" d="m127.83,250.33c-3.5,0-7,.03-10.5-.01-1.93-.02-3.61-.69-3.64-2.89-.04-2.31,1.71-2.76,3.63-2.76,7,0,14,.02,21-.01,1.96,0,3.69.44,3.65,2.71-.03,2.14-1.72,2.91-3.64,2.95-3.5.06-7,.02-10.5.02Z"/>
  <path class="cls-1" d="m128.21,18.99c3.5,0,7,.02,10.5,0,1.92-.02,3.28.85,3.27,2.75,0,1.86-1.4,2.89-3.24,2.9-7.27.05-14.54.04-21.8,0-1.83,0-3.25-.94-3.25-2.86,0-2.24,1.64-2.82,3.62-2.8,3.63.03,7.27,0,10.9,0Z"/>
  <path class="cls-2" d="m90.77,92.21c-3.38,0-6.77-.07-10.15.02-2.67.08-4.13-1.02-4.13-3.75-.02-6.9-.02-13.81,0-20.71,0-2.48,1.32-3.71,3.8-3.7,7.04,0,14.08,0,21.11,0,2.55,0,3.71,1.43,3.73,3.82.05,6.9.04,13.81,0,20.71-.01,2.45-1.25,3.69-3.81,3.63-3.52-.08-7.04-.02-10.56-.02Zm.18-5.68q8.53,0,8.53-8.39t-9.42-8.39q-7.91,0-7.91,7.87,0,8.92,8.8,8.92Z"/>
  <path class="cls-2" d="m90.86,128.77c-3.38,0-6.77-.09-10.15.03-2.92.1-4.26-1.15-4.25-4.05.03-6.63.03-13.26,0-19.89-.02-2.84,1.24-4.26,4.14-4.24,6.77.03,13.53.05,20.3,0,2.9-.03,4.26,1.33,4.26,4.15,0,6.63,0,13.26,0,19.89,0,2.79-1.14,4.27-4.16,4.15-3.38-.13-6.76-.03-10.15-.03Zm.02-5.68q8.61,0,8.61-7.91,0-8.88-8.93-8.88-8.4,0-8.4,8.2,0,8.59,8.72,8.59Z"/>
  <path class="cls-2" d="m90.62,165.31c-3.52,0-7.04-.03-10.55,0-2.37.02-3.55-1.22-3.57-3.46-.06-7.03-.04-14.07,0-21.1.01-2.27,1.26-3.54,3.54-3.55,7.17-.04,14.34-.02,21.51,0,2.58,0,3.59,1.59,3.6,3.94.03,6.76.01,13.53,0,20.29,0,2.63-1.19,3.99-3.97,3.91-3.51-.1-7.03-.02-10.55-.03Zm-.02-5.67q8.87,0,8.87-7.97,0-8.81-8.91-8.81-8.41,0-8.41,8.41t8.45,8.37Z"/>
  <path class="cls-2" d="m91.15,174.13c3.24,0,6.49.1,9.73-.03,2.91-.12,4.28,1.15,4.27,4.03,0,6.75.01,13.51,0,20.26,0,2.84-1.4,4.1-4.3,4.06-6.62-.1-13.24-.09-19.86,0-3,.04-4.56-1.1-4.54-4.25.05-6.62.04-13.24,0-19.86-.02-2.85,1.27-4.25,4.16-4.21,3.51.04,7.02.01,10.54,0Zm.14,5.68q-9.15,0-9.15,8.45t8.37,8.48q8.95,0,8.96-8.77,0-8.15-8.18-8.15Z"/>
  <path class="cls-2" d="m146.17,80.71c9.46,0,18.93-.01,28.39,0,2.04,0,4.47-.15,4.38,2.81-.08,2.72-2.23,2.89-4.43,2.88-18.79-.03-37.59-.02-56.38-.01-2.12,0-4.46.02-4.41-2.81.05-2.71,2.32-2.88,4.47-2.88,9.33.02,18.66,0,27.99,0Z"/>
  <path class="cls-2" d="m146.77,191.05c9.45,0,18.9,0,28.35,0,1.73,0,3.82-.27,3.82,2.36,0,2.49-1.74,3.05-3.88,3.05-19.17-.01-38.34,0-57.51-.02-2.04,0-4.01-.35-3.85-2.98.14-2.38,2.06-2.43,3.91-2.43,9.72.02,19.44,0,29.16,0Z"/>
  <path class="cls-2" d="m146.57,117.95c9.59,0,19.19-.01,28.78.01,1.57,0,3.53-.38,3.62,2.07.08,2.39-1.37,3.33-3.62,3.32-19.32,0-38.65,0-57.97,0-1.9,0-3.69-.41-3.69-2.76,0-2.38,1.78-2.66,3.69-2.66,9.73.02,19.46,0,29.19.01Z"/>
  <path class="cls-2" d="m146.14,159.91c-9.2,0-18.41.02-27.61-.02-2.11,0-4.83.39-4.81-2.82.02-2.98,2.57-2.57,4.56-2.57,18.81-.01,37.62-.02,56.43.01,1.8,0,4.2-.53,4.19,2.41-.01,2.81-2.18,2.99-4.34,2.99-9.47-.01-18.95,0-28.42,0Z"/>
  <path class="cls-2" d="m132.27,70.02c4.86,0,9.72.02,14.58-.01,1.96-.01,3.66.47,3.68,2.74.03,2.24-1.65,2.93-3.59,2.93-9.85.03-19.71.02-29.56,0-1.93,0-3.67-.65-3.69-2.86-.03-2.59,1.98-2.82,4.01-2.82,4.86.01,9.72,0,14.58,0Z"/>
  <path class="cls-2" d="m132.38,143.13c4.72,0,9.45.02,14.17-.01,2.06-.01,4.01.29,3.99,2.84-.02,2.22-1.77,2.83-3.7,2.83-9.85.02-19.7.02-29.56-.01-1.93,0-3.6-.73-3.59-2.95.01-2.34,1.8-2.7,3.71-2.7,4.99,0,9.99,0,14.98,0Z"/>
  <path class="cls-2" d="m132.01,185.62c-4.86,0-9.72-.01-14.57,0-1.92,0-3.67-.35-3.75-2.67-.08-2.3,1.67-2.97,3.55-2.98,9.99-.05,19.97-.04,29.96,0,2.02,0,3.5,1,3.33,3.18-.15,2-1.72,2.49-3.53,2.48-4.99-.03-9.99,0-14.98-.01Z"/>
  <path class="cls-2" d="m132.26,112.25c-4.86,0-9.72,0-14.58,0-2.06,0-3.99-.5-3.98-2.97.01-2.61,2.12-2.71,4.1-2.71,9.58,0,19.16.01,28.75,0,2.06,0,4.04.28,3.97,2.84-.06,2.48-2.05,2.84-4.09,2.84-4.72,0-9.45,0-14.17,0Z"/>
</svg>