<?xml version="1.0" encoding="UTF-8"?>
<svg id="Capa_1" data-name="Capa 1" xmlns="http://www.w3.org/2000/svg" viewBox="0 0 256.7 256.43">
  <defs>
    <style>
      .cls-1 {
        fill: #df1683;
      }
    </style>
  </defs>
  <path class="cls-1" d="m128.63,0C162.73,0,196.83-.02,230.92.04c4.07,0,8.18-.3,12.16,1.19,8.14,3.04,13.55,10.26,13.58,18.99.08,25.25.03,50.51,0,75.76,0,1.81-.24,3.64-.51,5.44-.25,1.66-1.08,2.82-2.97,3.02-1.84.2-2.91-.69-3.71-2.17-.64-1.18-.56-2.46-.56-3.74,0-25.89,0-51.79,0-77.68,0-8.47-4.93-13.33-13.47-13.34-50.37-.02-100.75-.02-151.12-.07-21.58-.02-43.17-.29-64.75.08-6.25.11-11.57,5.38-11.76,11.67-.08,2.73,0,5.47-.17,8.2-.15,2.57.79,3.51,3.46,3.5,20.88-.09,41.76-.05,62.64-.04,40.85,0,81.69,0,122.54.02,2,0,4.02-.15,5.97.5,1.66.55,3.23,1.46,3.08,3.34-.15,1.98-1.63,3.27-3.63,3.5-1.71.2-3.45.07-5.18.07-61.45,0-122.89,0-184.34,0-.64,0-1.28.08-1.91.02-1.87-.18-2.63.58-2.55,2.5.12,3.28.08,6.56.08,9.84,0,39.02,0,78.04-.08,117.06,0,2.58.97,3.38,3.4,3.24,2.73-.16,5.47-.12,8.16.54,1.8.44,3.47,1.22,3.26,3.36-.2,2.14-1.56,3.44-3.85,3.44-4.83,0-9.66,0-14.49-.07-2.27-.04-3.51-1.38-3.73-3.58-.22-2.17-.43-4.36-.43-6.54C0,119.42,0,70.73,0,22.05c0-6.11,1.43-11.72,6.07-16.13C9.93,2.25,14.35.14,19.77.14c35.28,0,70.57-.04,105.85-.07,1,0,2.01,0,3.01,0,0-.02,0-.05,0-.07Z"/>
  <path class="cls-1" d="m179.69,201.8c-3.28,0-6.57.07-9.85-.02-4.55-.12-6.24-1.9-6.28-6.39-.03-2.92-.05-5.84-.01-8.75.02-1.55-.54-2.54-2.05-3.14-2.62-1.03-5.26-2.08-7.75-3.39-2.47-1.3-4.25-.62-6.07,1.2-2.12,2.12-4.33,4.18-6.65,6.08-2.9,2.37-3.74,2.38-6.72.1-4.58-3.5-8.24-7.96-12.39-11.92-5.73-5.48-5.67-6.04-.01-11.66,6.7-6.64,6.27-6.49,3.12-15.33-1.66-4.65-3.98-6.01-8.45-5.38-2.15.3-4.37.12-6.56.06-2.84-.08-4.24-1.25-4.55-4.04-.83-7.36-.48-14.75-.24-22.12.1-3.09,1.45-4.08,4.63-4.14,3.74-.07,7.48-.07,11.21.02,1.65.04,2.6-.63,2.97-2.17.75-3.11,1.93-6.07,3.25-8.97.81-1.77.72-3.21-.84-4.63-2.15-1.96-4.14-4.1-6.14-6.22-3.01-3.19-3.01-5.39.04-8.47,4.23-4.28,8.49-8.53,12.76-12.77,3.06-3.04,5.39-3.1,8.48-.17,2.25,2.13,4.46,4.31,6.66,6.49,1.1,1.09,2.19,1.27,3.67.61,3.07-1.36,6.22-2.55,9.36-3.74,1.68-.63,2.39-1.66,2.31-3.51-.13-3.19-.07-6.38-.03-9.57.04-2.92,1.38-4.82,4.24-5.08,7.72-.68,15.47-.68,23.2.04,3.06.28,3.06,3.14,3.25,5.25.28,3.07.18,6.2-.11,9.28-.2,2.1.24,3.31,2.4,3.77,3.14.67,5.95,2.25,8.86,3.53,1.76.78,3.15.53,4.46-.75,2.34-2.3,4.65-4.63,7.01-6.91,2.41-2.33,4.52-2.49,6.91-.24,4.85,4.56,9.57,9.25,14.34,13.89,1.95,1.89,2.45,5.81.15,7.84-2.31,2.04-4.21,4.55-6.44,6.69-1.44,1.38-1.96,2.84-1.24,4.64,1.28,3.21,2.62,6.4,3.97,9.58.54,1.28,1.66,1.52,2.94,1.51,3.28-.03,6.57-.07,9.85.06,3.76.15,5.43,1.6,5.45,5.3.04,6.73.58,13.48-.41,20.2-.54,3.66-1.62,4.75-5.31,4.88-2.82.1-5.65.08-8.48-.04-2.44-.11-3.99.91-4.85,3.14-1.15,2.97-2.29,5.95-3.49,8.9-.69,1.68.15,2.77,1.26,3.83,2.3,2.21,4.59,4.43,6.85,6.68,2.41,2.39,2.64,4.2.34,6.6-4.92,5.13-9.93,10.19-15.1,15.07-3.02,2.85-4.66,2.6-7.53-.32-2.23-2.28-4.51-4.51-6.68-6.86-1.21-1.31-2.44-1.72-4.12-.99-3.17,1.37-6.37,2.67-9.58,3.97-1.35.55-1.54,1.54-1.49,2.86.17,4.09.3,8.18-.36,12.27-.38,2.32-1.52,3.38-3.8,3.38-3.46,0-6.93,0-10.39,0,0,0,0-.01,0-.02Zm65.44-73.35s.02,0,.03,0c0-1.64-.13-3.29.03-4.92.23-2.38-.73-3.35-3.09-3.29-3.01.08-6.02.09-9.02-.05-1.9-.09-3.92-.25-4.54-2.67-1.47-5.63-2.91-11.27-6.45-16.07-.16-.21-.17-.52-.29-.76-1.03-2.09-.6-3.74,1.2-5.3,2.53-2.22,4.88-4.64,7.3-7,.93-.9,1.53-1.89.34-3.03-2.89-2.77-5.81-5.51-8.66-8.33-1.24-1.23-2.27-.82-3.28.19-1.73,1.74-3.41,3.54-5.13,5.3-3.97,4.07-5.53,4.41-10.46,1.53-4.12-2.41-8.42-4.31-12.98-5.62-2.17-.63-3.1-1.93-3.11-4.17-.02-3.28-.3-6.56-.31-9.83,0-2-.82-2.75-2.78-2.7-3.37.08-6.75.08-10.12,0-2.1-.06-2.99.77-2.93,2.89.08,3.19.07,6.38-.02,9.57-.05,1.65-.28,3.42-2.23,3.97-5.82,1.63-11.27,4.1-16.55,6.99-2.08,1.14-4,.85-5.7-.89-2.3-2.34-4.68-4.59-6.96-6.96-1.17-1.21-2.12-1.45-3.41-.14-2.74,2.79-5.55,5.53-8.4,8.21-1.23,1.16-1.14,2.01.08,3.11,2.17,1.95,4.24,4,6.33,6.04,3.5,3.4,3.59,3.46,1.37,7.93-2.26,4.57-4.78,9.02-6.09,13.98-.77,2.9-2.71,3.88-5.44,3.88-2.73,0-5.47.05-8.2-.03-1.9-.06-2.85.51-2.82,2.62.04,3.64-.11,7.28-.27,10.91-.08,1.79.87,2.15,2.37,2.13,3.19-.04,6.38.06,9.57-.03,2.85-.09,4.59,1.38,5.21,3.9,1.28,5.28,3.48,10.14,6.22,14.78,1.14,1.93,1.17,3.7-.31,5.52-2.14,2.62-4.38,5.14-7.02,7.24-1.68,1.34-1.77,2.57-.25,4.04,2.62,2.52,5.33,4.97,7.8,7.63,1.58,1.71,2.67,1.31,4-.16,2.09-2.29,4.24-4.52,6.4-6.74,1.41-1.45,3.06-2.51,5.09-1.32,4.9,2.88,10.14,4.94,15.56,6.55,2.66.79,3.87,2.41,3.74,5.22-.13,3.09.02,6.2-.08,9.3-.05,1.83.54,2.68,2.5,2.62,3.46-.11,6.93-.17,10.39-.02,2.34.1,3.13-1,3.09-3.07-.05-2.64-.27-5.29-.16-7.92.09-2.06.16-4.42,2.62-5.24,5.79-1.92,11.4-4.23,16.86-6.96,2.02-1.01,3.95-.63,5.6,1.3,1.95,2.28,4.26,4.24,6.28,6.47,1.45,1.6,2.64,1.5,4.06.02,2.58-2.69,5.19-5.37,7.9-7.94,1.5-1.42,1.38-2.54-.06-3.86-2.29-2.09-4.54-4.22-6.75-6.39-1.75-1.72-2.2-3.63-.85-5.9,2.8-4.72,4.84-9.78,6.26-15.06.78-2.91,2.76-3.88,5.45-3.94,2.92-.07,5.83-.1,8.75-.08,1.75.01,2.76-.36,2.4-2.51-.27-1.6-.05-3.27-.05-4.91Z"/>
  <path class="cls-1" d="m70.34,155.61c2.19,0,4.38-.04,6.56,0,3.1.06,4.3,1.16,4.46,4.27.1,2-.14,4.01-.05,6.01.08,1.78,0,3.7,2.32,4.44,2.45.78,4.75,1.8,6.84-.87,1.5-1.93,3.23-3.72,5.6-4.68,2.06-.83,3.86-.67,5.49,1,2.86,2.94,5.81,5.78,8.67,8.72,2.65,2.72,2.77,3.76.42,6.83-1.26,1.65-2.76,3.15-4.32,4.54-2.62,2.33-.72,4.73-.21,7.06.48,2.19,2.42,1.44,3.86,1.5,2,.09,4.01-.03,6.01.09,3,.18,4.38,1.42,4.48,4.4.14,4.46.16,8.94-.02,13.4-.13,3.28-1.95,4.94-5.2,5.19-1.17.09-2.37,0-3.55-.08-4.65-.33-4.48-.27-6.36,3.95-1.15,2.58.57,3.72,1.86,5.11,1.41,1.52,3.06,2.8,4.07,4.71.93,1.77.92,3.36-.43,4.77-3.52,3.69-7.02,7.4-10.71,10.92-1.67,1.6-3.77,1.28-5.5-.13-1.62-1.32-3.2-2.73-4.56-4.3-2.27-2.62-4.64-1.03-7-.4-2.23.59-1.74,2.48-1.81,4.05-.09,2.09.04,4.2-.13,6.28-.19,2.38-1.38,3.82-4.03,3.85-4.73.04-9.46.55-14.19-.2-3.1-.49-4.27-1.71-4.42-4.85-.08-1.82-.04-3.65-.02-5.47.02-1.42-.01-2.84-1.71-3.3-2.19-.6-4.25-3.07-6.71-.55-1.14,1.17-2.28,2.36-3.48,3.47-3.29,3.06-5.27,3.04-8.42-.06-2.6-2.56-5.2-5.11-7.74-7.72-2.87-2.95-2.83-5.37.02-8.27.57-.58,1.19-1.13,1.78-1.7,4.1-3.98,4.1-4.08,1.29-8.93-.5-.86-1.21-.94-2.03-1.11-1.92-.38-3.82,0-5.72.02-4.64.06-6.13-1.39-6.14-5.92-.01-4.1-.05-8.2,0-12.31.04-3.21.88-4.28,4.09-4.68,2.34-.3,4.73-.26,7.09-.2,3.4.08,3.12-3.07,4.34-4.84.94-1.36.13-2.54-1.01-3.54-1.38-1.19-2.71-2.43-3.97-3.75-2.47-2.57-2.49-4.86-.05-7.34,2.94-2.98,5.87-5.99,8.97-8.81,2.88-2.62,4.76-2.49,7.59.19,1.19,1.13,2.37,2.27,3.47,3.49,1.13,1.25,2.43,1.37,3.96.97,4.4-1.15,4.41-1.13,4.41-5.78q0-9.44,9.38-9.47c.82,0,1.64,0,2.46,0,0,0,0,.02,0,.03Zm-4.58,88.19c0,6.41-.24,5.08,4.66,5.11,2.58.02,3.59-.74,3.49-3.61-.25-6.65.76-7.93,6.91-10.41,1.52-.61,3.17-.91,4.63-1.62,3.44-1.67,5.94-.57,8.43,2.04,4.14,4.34,4.21,4.21,8.4.04,1.09-1.09,1.14-2.03.14-3.04-1.35-1.35-2.82-2.58-4.19-3.91-1.54-1.49-2.22-3.13-1.49-5.39,1.12-3.47,2.61-6.79,3.96-10.17.67-1.69,1.98-2.55,3.82-2.57,1.18-.02,2.37-.07,3.55-.11,4.83-.16,4.89-.29,4.91-5.2.01-2.24-.62-3.45-3.14-3.21-1.71.17-3.46.07-5.19-.02-1.75-.09-3.12-.83-3.9-2.52-.94-2.07-2.01-4.08-2.93-6.16q-2.87-6.47,2.25-11.51c.65-.64,1.31-1.27,1.88-1.98.39-.49.84-1.23.47-1.76-1.26-1.79-2.76-3.51-4.73-4.4-1.75-.79-2.41,1.1-3.32,2.17-3.89,4.61-5.87,5.07-11.38,2.63-1.41-.63-2.74-1.49-4.19-1.98-3.98-1.34-5.33-3.94-5.06-8.13.35-5.45.09-5.4-5.38-5.22-1.92.07-2.59.89-2.55,2.68.04,1.82.03,3.65-.03,5.47-.06,1.62-.49,3.08-2.16,3.8-3.76,1.62-7.52,3.23-11.27,4.86-1.44.62-2.57.32-3.66-.84-1.56-1.65-3.21-3.22-4.91-4.73-.82-.73-1.78-1.3-2.93-.4-4.22,3.35-4.3,4.61-.47,8.33.26.25.51.53.78.76,2.3,1.95,2.87,4.33,1.72,7.11-1.25,3.03-2.52,6.05-3.73,9.09-.82,2.07-2.31,2.9-4.48,2.82-1.82-.07-3.65-.04-5.47-.03-1.41,0-2.24.67-2.23,2.16.04,5.65-.99,6.77,5.49,6.03,4.79-.55,6.58.76,8.17,5.33.83,2.4,1.45,4.9,2.49,7.21.86,1.9.52,3.35-.79,4.72-1.51,1.58-3.24,2.98-4.6,4.67-2.88,3.6,2.19,3.82,2.81,6.07.44,1.62,1.99,1.15,3.09.14.53-.49,1.05-1.02,1.54-1.55.87-.93,1.68-1.93,2.59-2.82,1.65-1.63,3.59-2.03,5.77-1.18,2.88,1.12,5.74,2.31,8.68,3.29,2.33.78,3.33,2.4,3.54,4.66.1,1.08.02,2.19.02,3.28Z"/>
  <path class="cls-1" d="m88.89,69.85c.07,1.07-.25,1.95-.91,2.59-5.15,5.02-9.74,10.59-15.33,15.15-2.7,2.2-5.38,1.29-5.92-1.82-.27-1.56.64-2.61,1.59-3.59,3.1-3.2,6.27-6.35,9.37-9.56,2.34-2.42,2.28-2.74,0-5.06-3.06-3.11-6.31-6.06-8.98-9.54-.66-.86-1.21-1.81-1.66-2.8-.66-1.46-.1-2.77,1.11-3.56,1.75-1.14,3.57-.67,5.05.6,2.13,1.84,4.18,3.79,6.17,5.78,2.76,2.77,5.45,5.61,8.14,8.44.9.95,1.47,2.08,1.37,3.35Z"/>
  <path class="cls-1" d="m39.33,88.72c-1.83-.07-3.39-.56-4.57-1.81-4.44-4.69-8.91-9.35-13.26-14.13-2.05-2.25-1.98-4.06.14-6.24,4.56-4.7,9.19-9.33,13.88-13.9,2.11-2.05,4.44-2.2,5.73-.56,1.27,1.6,1.57,3.16-.15,4.8-3.62,3.45-7.1,7.05-10.72,10.49-1.81,1.72-1.97,2.94.08,4.75,3.62,3.18,6.97,6.66,10.38,10.07,1.3,1.3,1.94,2.86,1.05,4.71-.55,1.14-1.25,2.04-2.56,1.84Z"/>
  <path class="cls-1" d="m47.46,84.45c-.11-2.3.86-4.42,1.38-6.62,1.77-7.52,3.86-14.96,5.39-22.54.42-2.06,1.58-3.74,3.77-4.26,1.48-.35,2.33.82,3.15,1.78.6.71.79,1.54.57,2.54-2.17,10.13-5,20.1-7.74,30.08-.54,1.98-1.7,3.51-4.13,3.01-2.18-.45-2.52-2.09-2.4-4.01Z"/>
  <path class="cls-1" d="m227.6,38.22c-3.37,0-6.74-.02-10.12,0-2.08.02-2.97-1.17-3.11-3.03-.15-1.91.44-3.59,2.61-3.79,6.9-.65,13.82-.8,20.74-.17,1.9.17,2.99,1.17,3.16,3.12.24,2.7-.73,3.88-3.44,3.93-3.28.05-6.56.01-9.84.01,0-.03,0-.05,0-.08Z"/>
  <path class="cls-1" d="m31.2,22.85c-1.36,0-2.73.03-4.09,0-2.28-.06-3.54-1.21-3.61-3.53-.07-2.31,1.09-3.65,3.37-3.75,2.81-.12,5.63-.09,8.45,0,2.35.07,3.37,1.35,3.17,3.75-.18,2.22-.97,3.65-3.47,3.55-1.27-.05-2.54,0-3.82-.02Z"/>
  <path class="cls-1" d="m50.79,22.86c-1.09,0-2.18,0-3.28,0-3.17-.03-4.31-1.05-4.34-3.87-.03-2.73.81-3.44,4.25-3.47,2.28-.02,4.55-.04,6.83.05,2.52.11,3.93,1.61,3.88,3.97-.05,2.19-1.38,3.28-4.06,3.32-1.09.01-2.18,0-3.28,0Z"/>
  <path class="cls-1" d="m74.16,22.85c-1.27,0-2.54.04-3.81,0-2.33-.09-3.67-1.11-3.77-3.66-.1-2.57,1.45-3.42,3.51-3.56,2.62-.18,5.26-.14,7.89-.05,2.38.08,3.29,1.56,3.25,3.81-.04,2.16-.94,3.46-3.25,3.45-1.27,0-2.54,0-3.81,0,0,0,0,0,0,0Z"/>
  <path class="cls-1" d="m179.28,151.15c-12.72.23-23.12-10.36-23.39-23.81-.22-10.93,10.8-21.61,22.21-22.15,12-.56,23.92,10.92,24.03,21.83.13,12.9-10.67,24.27-22.85,24.12Zm14.91-22.77c.03-8.67-6.8-15.94-15.18-15.71-9.04.25-15.31,6.98-15.35,15.55-.04,8.05,6.96,15.55,14.79,15.27,8.84-.32,15.68-6.04,15.74-15.11Z"/>
  <path class="cls-1" d="m70.2,221.04c-7.18,1.16-15.73-8.23-15.23-15.29.56-7.83,7.18-14.79,15.02-14.74,8.37.05,14.86,6.94,15.06,15.52.13,5.66-7.01,15.55-14.85,14.52Zm7.45-15.35c.1-3.3-3.52-7.28-6.7-7.39-4.85-.17-8.78,3.21-8.87,7.64-.07,3.6,3.84,7.57,7.56,7.65,4.37.1,7.88-3.36,8.01-7.9Z"/>
</svg>