<?xml version="1.0" encoding="UTF-8"?>
<svg id="Capa_1" data-name="Capa 1" xmlns="http://www.w3.org/2000/svg" viewBox="0 0 256.41 256.37">
  <defs>
    <style>
      .cls-1 {
        fill: #fff;
        stroke: #fff;
        stroke-miterlimit: 10;
      }
    </style>
  </defs>
  <path class="cls-1" d="m127.96,0C162.36,0,196.76,0,231.17.04c2.56,0,5.16.24,7.68.69,9.61,1.7,16.22,9.47,17.09,19.16.48,5.35.4,10.67.4,16.01.04,48.39-.03,96.79.07,145.18.02,9.4-3.89,16.46-11.52,21.58-3.4,2.28-7.46,2.3-11.34,2.31-22.01.08-44.03.04-66.04.04-4.09,0-4.25.25-3.07,4.3,1.86,6.4,3.31,12.91,4.68,19.42.37,1.76,1.04,2.4,3.04,2.4,7.11,0,14.23-.45,21.35.37,5.32.61,8.72,3.33,10.38,8.26,1.69,5,1.06,10.22,1.12,15.37.01.94-.52,1.23-1.36,1.22-.71,0-1.43,0-2.14,0-48.84,0-97.68,0-146.52,0-4.16,0-3.62.48-3.62-3.76,0-3.11-.11-6.21.43-9.32,1.33-7.74,6.19-12.09,14.08-12.21,4.72-.07,9.45-.1,14.17.03,1.99.06,2.67-.65,3.16-2.57,1.83-7.14,2.9-14.47,5.21-21.49.47-1.42.08-2.03-1.39-2-.71.01-1.43,0-2.14,0-20.68,0-41.35.03-62.03-.01-11.13-.02-19.51-6.51-22.04-16.98C.25,185.69,0,183.3,0,180.88.02,128.47.01,76.07.01,23.66.02,9.58,9.52.03,23.68.02,58.44-.02,93.2,0,127.96,0Zm.31,68.09c-27.62,0-55.25.01-82.87-.03-1.96,0-3.02.13-3.02,2.63.09,29.76.08,59.53,0,89.29,0,2.17.7,2.64,2.73,2.63,35.82-.06,71.65-.04,107.47-.04,3.13,0,3.06-.06,2.22-3.21-2.35-8.75-4.55-17.54-5.98-26.5-.51-3.2.81-4.74,4.03-4.73,1.06,0,2.11.26,3.17.4,6.37.81,12.46,2.83,18.7,4.21,5.55,1.22,11.04,2.72,16.53,4.21,4.68,1.27,5.53,4.17,2.34,7.81-1.11,1.27-2.31,2.49-3.6,3.58-1.32,1.12-1.49,2.01-.11,3.22,1.54,1.35,2.92,2.87,4.39,4.3,8.11,7.85,5.24,6.53,16.78,6.77,2.42.05,2.93-.69,2.93-3-.08-29.41-.09-58.81.01-88.22,0-2.7-.68-3.4-3.39-3.39-27.45.1-54.89.06-82.34.06Zm-2.36,103.4c-1.77-.95-3.29-.7-4.78-.7-32.09-.02-64.17-.01-96.26-.01-6.26,0-7.74-1.47-7.74-7.67,0-46.08.05-92.16-.06-138.24-.02-6.46,2.32-7.24,7.62-7.75.62-.06,1.25,0,1.87,0,68.01,0,136.01,0,204.02,0,.71,0,1.43-.02,2.14,0,4.25.19,6.12,1.96,6.49,6.19.07.8.04,1.6.04,2.41,0,46.08,0,92.16,0,138.24,0,4.75-1.74,6.58-6.51,6.8-1.33.06-2.67,0-4.01.02-5.52.05-11.05.08-16.57.17-.58,0-1.36-.11-1.66.58-.37.84.35,1.36.89,1.74,1.39.99,2.57,2.17,3.75,3.38,2.43,2.51,2.45,4.94-.13,7.37-3.63,3.42-7.28,6.82-10.95,10.19-.62.57-1.3,1.07-.91,1.99.36.83,1.23.58,1.9.58,9.45,0,18.9.12,28.34-.09,3.5-.08,7.11-.42,9.88-3.26,3.28-3.37,4.91-7.34,4.91-12.01,0-52.14,0-104.28.02-156.42,0-2.25-.28-4.45-.7-6.62-.92-4.7-5.23-8.9-9.68-9.57-2.82-.42-5.64-.66-8.51-.65-18.18.05-36.37.02-54.55.02-50.63,0-101.25,0-151.88,0-7.62,0-12.61,4.12-14.16,11.46-.37,1.76-.52,3.51-.52,5.29,0,51.43,0,102.86,0,154.28,0,1.07,0,2.14.05,3.21.46,9.19,5.86,14.34,15.1,14.36,12.39.02,24.78.01,37.17,0,20.77-.01,41.53-.02,62.3-.07.95,0,2.09.34,3.03-.9-6.11-1.9-9.89-5.67-9.78-12.16.11-6.35,3.83-10.19,9.83-12.2Zm2.22-146.18c-33.07,0-66.13,0-99.2,0q-3.61,0-3.62,3.55c0,42.78,0,85.56,0,128.34q0,5.39,5.51,5.38,3.4,0,3.4-3.48c0-36.81,0-73.62,0-110.43,0-7.2,3.98-12.21,10.96-13.72,1.99-.43,4.05-.69,6.08-.7,51.78-.04,103.56-.04,155.35-.02,9.97,0,15.5,5.61,15.5,15.59,0,35.74,0,71.48,0,107.22,0,5.55,0,5.39,5.62,5.61,2.74.11,3.37-.71,3.36-3.39-.09-43.49-.06-86.99-.06-130.48q0-3.46-3.45-3.47c-33.15,0-66.31,0-99.46,0Zm-.1,34.59c27.27,0,54.54,0,81.81,0,.8,0,1.61-.05,2.41,0,1.29.09,1.71-.5,1.69-1.73-.06-3.21.1-6.42-.08-9.62-.24-4.17-2.29-5.98-6.54-6.11-.62-.02-1.25-.01-1.87-.01-51.6,0-103.2,0-154.79,0-.8,0-1.61-.05-2.4.04-4.29.46-5.79,2.11-5.81,6.33-.01,2.58.17,5.18-.05,7.75-.23,2.63.51,3.44,3.31,3.42,27.45-.12,54.9-.07,82.34-.07Zm-2.49,171.14c10.96,0,21.91-.04,32.87.03,2.42.02,2.84-.7,2.21-3.01-1.8-6.68-3.4-13.42-4.96-20.16-.49-2.11-1.55-2.93-3.7-2.93-17.55.05-35.1.06-52.64-.01-2.01,0-2.9.68-3.25,2.6-1.29,7.09-3.14,14.04-5.18,20.94-.63,2.14-.06,2.6,2.05,2.58,10.87-.09,21.73-.04,32.6-.05Zm4.34-59.28c6.63,1.56,10.04,5.33,10.53,11.26.28,3.36-1.27,5.99-3.06,8.58-1.89,2.73-4.72,3.76-7.99,4.02.07.26.14.52.21.78h69.64c.04-.89-.6-1.15-1.06-1.52-9.07-7.26-16.75-15.95-24.8-24.26-2.37-2.45-3.28-2.68-5.61-.08-1.44,1.61-2.97,3.04-4.89,4.07-2,1.08-3.59,1.02-4.6-1.24-.88-1.97-2.36-2.66-4.48-2.63-6.5.09-13.01.02-19.51.07-1.39.01-2.85-.18-4.38.93Zm-1.97,76.39c21.74,0,43.47,0,65.21,0,.71,0,1.43-.04,2.14,0,1.14.07,1.49-.45,1.58-1.57.4-4.75-1.82-7.34-6.56-7.34-41.51-.01-83.03-.01-124.54,0-3.94,0-5.8,1.69-6.18,5.47-.33,3.31-.21,3.44,3.13,3.45,21.74,0,43.47,0,65.21,0Zm32.83-110.01c-2.44-.21-2.17.73-1.91,1.96,1.39,6.51,2.71,13.03,4.01,19.57.66,3.34.92,3.46,3.62,1.25.55-.45,1.08-.93,1.65-1.36,2.73-2.03,4.03-1.95,6.45.45,7.57,7.54,15.13,15.09,22.67,22.65,4.5,4.51,3.86,3.64,7.6.16,1.92-1.79,1.89-2.91.03-4.72-7.39-7.2-14.64-14.56-21.96-21.84-3.85-3.83-6.11-6.86-.35-11.34.47-.36,1.08-.86.92-1.53-.2-.84-1.05-.78-1.75-.91-3.67-.67-7.35-1.29-11-2.05-3.56-.74-7.09-1.62-9.99-2.29Zm-32.29,49.72c1.92.04,3.64-1.83,3.75-4.09.11-2.13-2.02-4.27-4.23-4.24-2.03.03-3.69,1.87-3.72,4.11-.03,2.43,1.7,4.16,4.2,4.22Z"/>
  <path class="cls-1" d="m114.96,105.72c2.54-1.74,2.88-4.6,4.2-6.86.53-.92.88-2,1.59-2.75,2.1-2.22,4.64-1.9,6.52.59,1.79,2.37,2.72,5.19,4.03,7.8.76,1.52,1.23,1.13,1.99.18,1.79-2.26,2.46-5.12,3.98-7.52.96-1.52,1.93-3.09,4.15-2.69,1.85.34,2.98,1.41,3.48,3.25.23.85.08,1.6-.24,2.33-2.5,5.81-5.55,11.34-8.67,16.81-1.83,3.21-5.7,2.9-7.4-.42-1.01-1.97-1.86-4.02-2.73-6.06-.36-.85-.69-1.72-1.75-1.77-.93-.04-1.42.72-1.79,1.42-.99,1.88-1.94,3.79-2.84,5.72-.75,1.61-1.74,3.02-3.63,3.15-1.97.14-3.64-1.03-4.34-2.64-2.46-5.61-5.95-10.72-7.87-16.6-.74-2.28-.26-3.93,1.74-4.95,2.08-1.06,3.65.13,4.65,1.86,1.69,2.91,3.2,5.92,4.92,9.15Z"/>
  <path class="cls-1" d="m166.3,105.71c1.44-.96,2.16-2.25,2.75-3.66.68-1.64,1.39-3.28,2.23-4.84,1.7-3.17,5.14-3.36,7.31-.56,1.77,2.29,2.73,4.99,3.92,7.54,1.01,2.16,1.69,1.33,2.38.13,1.32-2.31,2.39-4.75,3.68-7.07.87-1.56,1.87-3.12,4.08-2.82,2.72.37,4.4,2.92,3.36,5.49-2.4,5.93-5.56,11.5-8.74,17.04-1.77,3.08-5.57,2.77-7.25-.39-1.04-1.95-1.87-4.01-2.76-6.03-.36-.82-.58-1.78-1.64-1.91-1.22-.15-1.69.87-2.13,1.7-.95,1.8-1.81,3.65-2.69,5.49-1.89,3.9-5.89,4.41-7.79.62-2.76-5.54-6.06-10.84-8.02-16.78-.75-2.28-.26-3.93,1.74-4.94,2.07-1.06,3.64.12,4.65,1.85,1.73,2.97,3.27,6.05,4.93,9.14Z"/>
  <path class="cls-1" d="m63.61,105.7c1.45-.94,2.16-2.24,2.75-3.65.69-1.64,1.39-3.28,2.23-4.85,1.7-3.18,5.16-3.37,7.31-.54,1.8,2.37,2.72,5.19,4.04,7.79.73,1.43,1.16,1.28,1.97.24,1.95-2.48,2.63-5.64,4.41-8.2.95-1.36,2.02-2.48,3.97-2.01,1.87.46,2.86,1.63,3.31,3.44.21.86-.06,1.61-.37,2.33-2.51,5.7-5.49,11.17-8.57,16.56-1.83,3.22-5.69,2.94-7.41-.37-.98-1.88-1.79-3.86-2.64-5.81-.39-.9-.63-2-1.82-2.05-1.16-.05-1.64,1-2.08,1.85-.94,1.81-1.77,3.68-2.67,5.51-.74,1.49-1.72,2.82-3.51,2.94-1.98.14-3.62-1-4.35-2.62-2.5-5.59-5.93-10.73-7.89-16.59-.76-2.27-.3-3.93,1.7-4.97,2.07-1.08,3.66.09,4.66,1.81,1.74,2.97,3.28,6.06,4.94,9.15Z"/>
  <path class="cls-1" d="m149.7,111.31c2.02-.08,3.85,1.7,3.96,3.86.13,2.36-1.46,4.17-3.74,4.26-2.29.09-4.28-1.58-4.41-3.71-.12-2.07,2-4.31,4.18-4.4Z"/>
  <path class="cls-1" d="m205.01,115.38c-.03,2.35-1.77,4.09-4.05,4.04-2.06-.05-4.03-1.91-4.09-3.86-.06-2.07,2.22-4.29,4.37-4.25,2.09.04,3.79,1.88,3.77,4.07Z"/>
  <path class="cls-1" d="m98.47,111.31c2.04-.01,3.82,1.84,3.86,4,.04,2.32-1.7,4.13-3.96,4.12-2.18,0-4.24-2.01-4.17-4.05.07-2.01,2.22-4.06,4.27-4.07Z"/>
  <path class="cls-1" d="m53.28,55.27c-4.35,0-6.18-1.18-6.19-4.03-.01-2.94,1.8-4.17,6.17-4.16,1.24,0,2.47-.11,3.68.38,2.06.83,2.89,2.41,2.52,4.45-.36,1.96-1.43,3.46-3.78,3.37-.8-.03-1.6,0-2.4,0Z"/>
  <path class="cls-1" d="m86.98,55.26c-1.89.08-4.37.34-5.34-2.75-.73-2.33.15-4.35,2.45-5.06,2.16-.67,4.41-.59,6.58-.16,2.14.42,3.48,2.52,3.06,4.61-.44,2.15-1.73,3.45-4.08,3.37-.71-.02-1.42,0-2.66,0Z"/>
  <path class="cls-1" d="m69.85,55.27c-1.93.11-4.39.3-5.34-2.8-.71-2.32.22-4.28,2.51-5.05,1.91-.63,3.89-.44,5.82-.28,2.48.21,3.95,2.02,3.82,4.28-.14,2.46-1.68,3.8-4.43,3.84-.62,0-1.24,0-2.38,0Z"/>
</svg>